<svg width="20" height="20" viewBox="0 0 20 20" fill="none" xmlns="http://www.w3.org/2000/svg">
<circle cx="10" cy="10" r="10" fill="white"/>
<path d="M10.7043 9.99957L12.8522 7.85634C12.9463 7.76227 12.9991 7.63467 12.9991 7.50163C12.9991 7.36859 12.9463 7.241 12.8522 7.14692C12.7582 7.05285 12.6306 7 12.4976 7C12.3646 7 12.237 7.05285 12.1429 7.14692L10 9.29515L7.85707 7.14692C7.76301 7.05285 7.63544 7 7.50241 7C7.36939 7 7.24182 7.05285 7.14776 7.14692C7.0537 7.241 7.00085 7.36859 7.00085 7.50163C7.00085 7.63467 7.0537 7.76227 7.14776 7.85634L9.29568 9.99957L7.14776 12.1428C7.10094 12.1893 7.06378 12.2445 7.03842 12.3054C7.01306 12.3663 7 12.4316 7 12.4975C7 12.5635 7.01306 12.6288 7.03842 12.6896C7.06378 12.7505 7.10094 12.8058 7.14776 12.8522C7.19419 12.899 7.24944 12.9362 7.31031 12.9616C7.37118 12.9869 7.43647 13 7.50241 13C7.56836 13 7.63365 12.9869 7.69452 12.9616C7.75539 12.9362 7.81063 12.899 7.85707 12.8522L10 10.704L12.1429 12.8522C12.1894 12.899 12.2446 12.9362 12.3055 12.9616C12.3664 12.9869 12.4316 13 12.4976 13C12.5635 13 12.6288 12.9869 12.6897 12.9616C12.7506 12.9362 12.8058 12.899 12.8522 12.8522C12.8991 12.8058 12.9362 12.7505 12.9616 12.6896C12.9869 12.6288 13 12.5635 13 12.4975C13 12.4316 12.9869 12.3663 12.9616 12.3054C12.9362 12.2445 12.8991 12.1893 12.8522 12.1428L10.7043 9.99957Z" fill="black"/>
</svg>
