<svg width="50" height="50" viewBox="0 0 50 50" fill="none" xmlns="http://www.w3.org/2000/svg">
<circle cx="25" cy="25" r="25" fill="#FF6903"/>
<path fill-rule="evenodd" clip-rule="evenodd" d="M13 24.5698C13 30.7844 17.5135 35.9521 23.4167 37V27.9719H20.2917V24.5H23.4167V21.7219C23.4167 18.5969 25.4302 16.8615 28.2781 16.8615C29.1802 16.8615 30.1531 17 31.0552 17.1385V20.3333H29.4583C27.9302 20.3333 27.5833 21.0969 27.5833 22.0698V24.5H30.9167L30.3615 27.9719H27.5833V37C33.4865 35.9521 38 30.7854 38 24.5698C38 17.6562 32.375 12 25.5 12C18.625 12 13 17.6562 13 24.5698Z" fill="white"/>
</svg>
