<svg width="50" height="50" viewBox="0 0 50 50" fill="none" xmlns="http://www.w3.org/2000/svg">
<circle cx="25" cy="25" r="25" fill="#FF6903"/>
<path d="M25.3541 20.4744C23.0588 20.4744 21.1857 22.3476 21.1857 24.6429C21.1857 26.9382 23.0588 28.8113 25.3541 28.8113C27.6493 28.8113 29.5224 26.9382 29.5224 24.6429C29.5224 22.3476 27.6493 20.4744 25.3541 20.4744ZM37.856 24.6429C37.856 22.9167 37.8717 21.2062 37.7747 19.4831C37.6778 17.4818 37.2212 15.7056 35.7578 14.2421C34.2912 12.7755 32.5181 12.3221 30.5168 12.2251C28.7907 12.1282 27.0802 12.1438 25.3572 12.1438C23.6311 12.1438 21.9206 12.1282 20.1975 12.2251C18.1962 12.3221 16.4201 12.7786 14.9566 14.2421C13.49 15.7087 13.0366 17.4818 12.9397 19.4831C12.8427 21.2093 12.8584 22.9198 12.8584 24.6429C12.8584 26.3659 12.8427 28.0796 12.9397 29.8026C13.0366 31.804 13.4931 33.5802 14.9566 35.0437C16.4232 36.5103 18.1962 36.9637 20.1975 37.0606C21.9237 37.1576 23.6342 37.142 25.3572 37.142C27.0833 37.142 28.7938 37.1576 30.5168 37.0606C32.5181 36.9637 34.2943 36.5071 35.7578 35.0437C37.2244 33.577 37.6778 31.804 37.7747 29.8026C37.8748 28.0796 37.856 26.3691 37.856 24.6429ZM25.3541 31.0566C21.8049 31.0566 18.9405 28.1922 18.9405 24.6429C18.9405 21.0936 21.8049 18.2292 25.3541 18.2292C28.9033 18.2292 31.7677 21.0936 31.7677 24.6429C31.7677 28.1922 28.9033 31.0566 25.3541 31.0566ZM32.0303 19.4644C31.2017 19.4644 30.5325 18.7952 30.5325 17.9665C30.5325 17.1378 31.2017 16.4686 32.0303 16.4686C32.859 16.4686 33.5282 17.1378 33.5282 17.9665C33.5284 18.1633 33.4899 18.3582 33.4147 18.54C33.3395 18.7218 33.2292 18.8871 33.09 19.0262C32.9509 19.1654 32.7857 19.2757 32.6038 19.3509C32.422 19.4261 32.2271 19.4646 32.0303 19.4644Z" fill="white"/>
</svg>
