<svg width="50" height="50" viewBox="0 0 50 50" fill="none" xmlns="http://www.w3.org/2000/svg">
<path d="M22.9202 0H5.82256C2.60446 0 0 2.68677 0 6.00657V15.8307H13.7109V11.2835H22.3628C27.0049 11.2835 30.7851 12.883 33.2022 15.8307H48.4917C44.9738 5.90509 35.4975 0 22.9202 0Z" fill="#F8A601"/>
<path d="M49.733 20.9722H8.48792C3.79895 20.9722 0 24.896 0 29.7283V49.9999H22.9202C38.9873 49.9999 50 40.3594 50 24.9927C50 23.6106 49.911 22.2672 49.733 20.9722ZM22.3674 38.7213H13.7109V32.6664H34.2515C31.9702 36.5612 27.7403 38.7213 22.3674 38.7213Z" fill="#F8A601"/>
<path d="M13.7109 32.6665H0V38.7214H13.7109V32.6665Z" fill="#FF6903"/>
<path d="M13.7109 11.2836H0V15.8308H13.7109V11.2836Z" fill="#FF6903"/>
</svg>
