<svg width="184" height="125" viewBox="0 0 184 125" fill="none" xmlns="http://www.w3.org/2000/svg">
<rect x="16.5" y="0.5" width="167" height="124" rx="9.5" stroke="#555555"/>
<path d="M50.436 22.636L48.012 31H46.788L44.844 24.268L42.828 31L41.616 31.012L39.276 22.636H40.44L42.264 29.728L44.28 22.636H45.504L47.424 29.704L49.26 22.636H50.436ZM52.195 23.356C51.987 23.356 51.811 23.284 51.667 23.14C51.523 22.996 51.451 22.82 51.451 22.612C51.451 22.404 51.523 22.228 51.667 22.084C51.811 21.94 51.987 21.868 52.195 21.868C52.395 21.868 52.563 21.94 52.699 22.084C52.843 22.228 52.915 22.404 52.915 22.612C52.915 22.82 52.843 22.996 52.699 23.14C52.563 23.284 52.395 23.356 52.195 23.356ZM52.723 24.424V31H51.631V24.424H52.723ZM55.9162 25.324V29.2C55.9162 29.52 55.9842 29.748 56.1202 29.884C56.2562 30.012 56.4922 30.076 56.8282 30.076H57.6322V31H56.6482C56.0402 31 55.5842 30.86 55.2802 30.58C54.9762 30.3 54.8242 29.84 54.8242 29.2V25.324H53.9722V24.424H54.8242V22.768H55.9162V24.424H57.6322V25.324H55.9162ZM62.2193 24.304C62.7153 24.304 63.1633 24.412 63.5633 24.628C63.9633 24.836 64.2753 25.152 64.4993 25.576C64.7313 26 64.8473 26.516 64.8473 27.124V31H63.7673V27.28C63.7673 26.624 63.6033 26.124 63.2753 25.78C62.9473 25.428 62.4993 25.252 61.9313 25.252C61.3553 25.252 60.8953 25.432 60.5513 25.792C60.2153 26.152 60.0473 26.676 60.0473 27.364V31H58.9553V22.12H60.0473V25.36C60.2633 25.024 60.5593 24.764 60.9353 24.58C61.3193 24.396 61.7473 24.304 62.2193 24.304ZM74.9783 22.636V23.524H72.6983V31H71.6063V23.524H69.3143V22.636H74.9783ZM82.3224 27.46C82.3224 27.668 82.3104 27.888 82.2864 28.12H77.0304C77.0704 28.768 77.2904 29.276 77.6904 29.644C78.0984 30.004 78.5904 30.184 79.1664 30.184C79.6384 30.184 80.0304 30.076 80.3424 29.86C80.6624 29.636 80.8864 29.34 81.0144 28.972H82.1904C82.0144 29.604 81.6624 30.12 81.1344 30.52C80.6064 30.912 79.9504 31.108 79.1664 31.108C78.5424 31.108 77.9824 30.968 77.4864 30.688C76.9984 30.408 76.6144 30.012 76.3344 29.5C76.0544 28.98 75.9144 28.38 75.9144 27.7C75.9144 27.02 76.0504 26.424 76.3224 25.912C76.5944 25.4 76.9744 25.008 77.4624 24.736C77.9584 24.456 78.5264 24.316 79.1664 24.316C79.7904 24.316 80.3424 24.452 80.8224 24.724C81.3024 24.996 81.6704 25.372 81.9264 25.852C82.1904 26.324 82.3224 26.86 82.3224 27.46ZM81.1944 27.232C81.1944 26.816 81.1024 26.46 80.9184 26.164C80.7344 25.86 80.4824 25.632 80.1624 25.48C79.8504 25.32 79.5024 25.24 79.1184 25.24C78.5664 25.24 78.0944 25.416 77.7024 25.768C77.3184 26.12 77.0984 26.608 77.0424 27.232H81.1944ZM84.8558 25.492C85.0478 25.116 85.3198 24.824 85.6718 24.616C86.0318 24.408 86.4678 24.304 86.9798 24.304V25.432H86.6918C85.4678 25.432 84.8558 26.096 84.8558 27.424V31H83.7638V24.424H84.8558V25.492ZM96.1484 24.304C96.6604 24.304 97.1164 24.412 97.5164 24.628C97.9164 24.836 98.2324 25.152 98.4644 25.576C98.6964 26 98.8124 26.516 98.8124 27.124V31H97.7324V27.28C97.7324 26.624 97.5684 26.124 97.2404 25.78C96.9204 25.428 96.4844 25.252 95.9324 25.252C95.3644 25.252 94.9124 25.436 94.5764 25.804C94.2404 26.164 94.0724 26.688 94.0724 27.376V31H92.9924V27.28C92.9924 26.624 92.8284 26.124 92.5004 25.78C92.1804 25.428 91.7444 25.252 91.1924 25.252C90.6244 25.252 90.1724 25.436 89.8364 25.804C89.5004 26.164 89.3324 26.688 89.3324 27.376V31H88.2404V24.424H89.3324V25.372C89.5484 25.028 89.8364 24.764 90.1964 24.58C90.5644 24.396 90.9684 24.304 91.4084 24.304C91.9604 24.304 92.4484 24.428 92.8724 24.676C93.2964 24.924 93.6124 25.288 93.8204 25.768C94.0044 25.304 94.3084 24.944 94.7324 24.688C95.1564 24.432 95.6284 24.304 96.1484 24.304ZM101.168 23.356C100.96 23.356 100.784 23.284 100.64 23.14C100.496 22.996 100.424 22.82 100.424 22.612C100.424 22.404 100.496 22.228 100.64 22.084C100.784 21.94 100.96 21.868 101.168 21.868C101.368 21.868 101.536 21.94 101.672 22.084C101.816 22.228 101.888 22.404 101.888 22.612C101.888 22.82 101.816 22.996 101.672 23.14C101.536 23.284 101.368 23.356 101.168 23.356ZM101.696 24.424V31H100.604V24.424H101.696ZM106.233 25.324H104.853V31H103.761V25.324H102.909V24.424H103.761V23.956C103.761 23.22 103.949 22.684 104.325 22.348C104.709 22.004 105.321 21.832 106.161 21.832V22.744C105.681 22.744 105.341 22.84 105.141 23.032C104.949 23.216 104.853 23.524 104.853 23.956V24.424H106.233V25.324ZM113.17 24.424L109.21 34.096H108.082L109.378 30.928L106.726 24.424H107.938L110.002 29.752L112.042 24.424H113.17ZM123.131 24.424L119.171 34.096H118.043L119.339 30.928L116.687 24.424H117.899L119.963 29.752L122.003 24.424H123.131ZM127.097 31.108C126.481 31.108 125.921 30.968 125.417 30.688C124.921 30.408 124.529 30.012 124.241 29.5C123.961 28.98 123.821 28.38 123.821 27.7C123.821 27.028 123.965 26.436 124.253 25.924C124.549 25.404 124.949 25.008 125.453 24.736C125.957 24.456 126.521 24.316 127.145 24.316C127.769 24.316 128.333 24.456 128.837 24.736C129.341 25.008 129.737 25.4 130.025 25.912C130.321 26.424 130.469 27.02 130.469 27.7C130.469 28.38 130.317 28.98 130.013 29.5C129.717 30.012 129.313 30.408 128.801 30.688C128.289 30.968 127.721 31.108 127.097 31.108ZM127.097 30.148C127.489 30.148 127.857 30.056 128.201 29.872C128.545 29.688 128.821 29.412 129.029 29.044C129.245 28.676 129.353 28.228 129.353 27.7C129.353 27.172 129.249 26.724 129.041 26.356C128.833 25.988 128.561 25.716 128.225 25.54C127.889 25.356 127.525 25.264 127.133 25.264C126.733 25.264 126.365 25.356 126.029 25.54C125.701 25.716 125.437 25.988 125.237 26.356C125.037 26.724 124.937 27.172 124.937 27.7C124.937 28.236 125.033 28.688 125.225 29.056C125.425 29.424 125.689 29.7 126.017 29.884C126.345 30.06 126.705 30.148 127.097 30.148ZM137.736 24.424V31H136.644V30.028C136.436 30.364 136.144 30.628 135.768 30.82C135.4 31.004 134.992 31.096 134.544 31.096C134.032 31.096 133.572 30.992 133.164 30.784C132.756 30.568 132.432 30.248 132.192 29.824C131.96 29.4 131.844 28.884 131.844 28.276V24.424H132.924V28.132C132.924 28.78 133.088 29.28 133.416 29.632C133.744 29.976 134.192 30.148 134.76 30.148C135.344 30.148 135.804 29.968 136.14 29.608C136.476 29.248 136.644 28.724 136.644 28.036V24.424H137.736ZM142.371 27.7C142.371 27.02 142.507 26.428 142.779 25.924C143.051 25.412 143.427 25.016 143.907 24.736C144.395 24.456 144.951 24.316 145.575 24.316C146.383 24.316 147.047 24.512 147.567 24.904C148.095 25.296 148.443 25.84 148.611 26.536H147.435C147.323 26.136 147.103 25.82 146.775 25.588C146.455 25.356 146.055 25.24 145.575 25.24C144.951 25.24 144.447 25.456 144.063 25.888C143.679 26.312 143.487 26.916 143.487 27.7C143.487 28.492 143.679 29.104 144.063 29.536C144.447 29.968 144.951 30.184 145.575 30.184C146.055 30.184 146.455 30.072 146.775 29.848C147.095 29.624 147.315 29.304 147.435 28.888H148.611C148.435 29.56 148.083 30.1 147.555 30.508C147.027 30.908 146.367 31.108 145.575 31.108C144.951 31.108 144.395 30.968 143.907 30.688C143.427 30.408 143.051 30.012 142.779 29.5C142.507 28.988 142.371 28.388 142.371 27.7ZM149.661 27.688C149.661 27.016 149.797 26.428 150.069 25.924C150.341 25.412 150.713 25.016 151.185 24.736C151.665 24.456 152.197 24.316 152.781 24.316C153.357 24.316 153.857 24.44 154.281 24.688C154.705 24.936 155.021 25.248 155.229 25.624V24.424H156.333V31H155.229V29.776C155.013 30.16 154.689 30.48 154.257 30.736C153.833 30.984 153.337 31.108 152.769 31.108C152.185 31.108 151.657 30.964 151.185 30.676C150.713 30.388 150.341 29.984 150.069 29.464C149.797 28.944 149.661 28.352 149.661 27.688ZM155.229 27.7C155.229 27.204 155.129 26.772 154.929 26.404C154.729 26.036 154.457 25.756 154.113 25.564C153.777 25.364 153.405 25.264 152.997 25.264C152.589 25.264 152.217 25.36 151.881 25.552C151.545 25.744 151.277 26.024 151.077 26.392C150.877 26.76 150.777 27.192 150.777 27.688C150.777 28.192 150.877 28.632 151.077 29.008C151.277 29.376 151.545 29.66 151.881 29.86C152.217 30.052 152.589 30.148 152.997 30.148C153.405 30.148 153.777 30.052 154.113 29.86C154.457 29.66 154.729 29.376 154.929 29.008C155.129 28.632 155.229 28.196 155.229 27.7ZM161.382 24.304C162.182 24.304 162.83 24.548 163.326 25.036C163.822 25.516 164.07 26.212 164.07 27.124V31H162.99V27.28C162.99 26.624 162.826 26.124 162.498 25.78C162.17 25.428 161.722 25.252 161.154 25.252C160.578 25.252 160.118 25.432 159.774 25.792C159.438 26.152 159.27 26.676 159.27 27.364V31H158.178V24.424H159.27V25.36C159.486 25.024 159.778 24.764 160.146 24.58C160.522 24.396 160.934 24.304 161.382 24.304ZM45.924 45.46C45.924 45.668 45.912 45.888 45.888 46.12H40.632C40.672 46.768 40.892 47.276 41.292 47.644C41.7 48.004 42.192 48.184 42.768 48.184C43.24 48.184 43.632 48.076 43.944 47.86C44.264 47.636 44.488 47.34 44.616 46.972H45.792C45.616 47.604 45.264 48.12 44.736 48.52C44.208 48.912 43.552 49.108 42.768 49.108C42.144 49.108 41.584 48.968 41.088 48.688C40.6 48.408 40.216 48.012 39.936 47.5C39.656 46.98 39.516 46.38 39.516 45.7C39.516 45.02 39.652 44.424 39.924 43.912C40.196 43.4 40.576 43.008 41.064 42.736C41.56 42.456 42.128 42.316 42.768 42.316C43.392 42.316 43.944 42.452 44.424 42.724C44.904 42.996 45.272 43.372 45.528 43.852C45.792 44.324 45.924 44.86 45.924 45.46ZM44.796 45.232C44.796 44.816 44.704 44.46 44.52 44.164C44.336 43.86 44.084 43.632 43.764 43.48C43.452 43.32 43.104 43.24 42.72 43.24C42.168 43.24 41.696 43.416 41.304 43.768C40.92 44.12 40.7 44.608 40.644 45.232H44.796ZM46.9574 45.688C46.9574 45.016 47.0934 44.428 47.3654 43.924C47.6374 43.412 48.0094 43.016 48.4814 42.736C48.9614 42.456 49.4934 42.316 50.0774 42.316C50.6534 42.316 51.1534 42.44 51.5774 42.688C52.0014 42.936 52.3174 43.248 52.5254 43.624V42.424H53.6294V49H52.5254V47.776C52.3094 48.16 51.9854 48.48 51.5534 48.736C51.1294 48.984 50.6334 49.108 50.0654 49.108C49.4814 49.108 48.9534 48.964 48.4814 48.676C48.0094 48.388 47.6374 47.984 47.3654 47.464C47.0934 46.944 46.9574 46.352 46.9574 45.688ZM52.5254 45.7C52.5254 45.204 52.4254 44.772 52.2254 44.404C52.0254 44.036 51.7534 43.756 51.4094 43.564C51.0734 43.364 50.7014 43.264 50.2934 43.264C49.8854 43.264 49.5134 43.36 49.1774 43.552C48.8414 43.744 48.5734 44.024 48.3734 44.392C48.1734 44.76 48.0734 45.192 48.0734 45.688C48.0734 46.192 48.1734 46.632 48.3734 47.008C48.5734 47.376 48.8414 47.66 49.1774 47.86C49.5134 48.052 49.8854 48.148 50.2934 48.148C50.7014 48.148 51.0734 48.052 51.4094 47.86C51.7534 47.66 52.0254 47.376 52.2254 47.008C52.4254 46.632 52.5254 46.196 52.5254 45.7ZM57.8028 49.108C57.2988 49.108 56.8468 49.024 56.4468 48.856C56.0468 48.68 55.7308 48.44 55.4988 48.136C55.2668 47.824 55.1388 47.468 55.1148 47.068H56.2428C56.2748 47.396 56.4268 47.664 56.6988 47.872C56.9788 48.08 57.3428 48.184 57.7908 48.184C58.2068 48.184 58.5348 48.092 58.7748 47.908C59.0148 47.724 59.1348 47.492 59.1348 47.212C59.1348 46.924 59.0068 46.712 58.7508 46.576C58.4948 46.432 58.0988 46.292 57.5628 46.156C57.0748 46.028 56.6748 45.9 56.3628 45.772C56.0588 45.636 55.7948 45.44 55.5708 45.184C55.3548 44.92 55.2468 44.576 55.2468 44.152C55.2468 43.816 55.3468 43.508 55.5468 43.228C55.7468 42.948 56.0308 42.728 56.3988 42.568C56.7668 42.4 57.1868 42.316 57.6588 42.316C58.3868 42.316 58.9748 42.5 59.4228 42.868C59.8708 43.236 60.1108 43.74 60.1428 44.38H59.0508C59.0268 44.036 58.8868 43.76 58.6308 43.552C58.3828 43.344 58.0468 43.24 57.6228 43.24C57.2308 43.24 56.9188 43.324 56.6868 43.492C56.4548 43.66 56.3388 43.88 56.3388 44.152C56.3388 44.368 56.4068 44.548 56.5428 44.692C56.6868 44.828 56.8628 44.94 57.0708 45.028C57.2868 45.108 57.5828 45.2 57.9588 45.304C58.4308 45.432 58.8148 45.56 59.1108 45.688C59.4068 45.808 59.6588 45.992 59.8668 46.24C60.0828 46.488 60.1948 46.812 60.2028 47.212C60.2028 47.572 60.1028 47.896 59.9028 48.184C59.7028 48.472 59.4188 48.7 59.0508 48.868C58.6908 49.028 58.2748 49.108 57.8028 49.108ZM62.3083 41.356C62.1003 41.356 61.9243 41.284 61.7803 41.14C61.6363 40.996 61.5643 40.82 61.5643 40.612C61.5643 40.404 61.6363 40.228 61.7803 40.084C61.9243 39.94 62.1003 39.868 62.3083 39.868C62.5083 39.868 62.6763 39.94 62.8123 40.084C62.9563 40.228 63.0283 40.404 63.0283 40.612C63.0283 40.82 62.9563 40.996 62.8123 41.14C62.6763 41.284 62.5083 41.356 62.3083 41.356ZM62.8363 42.424V49H61.7443V42.424H62.8363ZM65.7894 40.12V49H64.6974V40.12H65.7894ZM73.3146 42.424L69.3546 52.096H68.2266L69.5226 48.928L66.8706 42.424H68.0826L70.1466 47.752L72.1866 42.424H73.3146ZM80.3235 42.316C80.8915 42.316 81.3875 42.44 81.8115 42.688C82.2435 42.936 82.5635 43.248 82.7715 43.624V42.424H83.8755V49.144C83.8755 49.744 83.7475 50.276 83.4915 50.74C83.2355 51.212 82.8675 51.58 82.3875 51.844C81.9155 52.108 81.3635 52.24 80.7315 52.24C79.8675 52.24 79.1475 52.036 78.5715 51.628C77.9955 51.22 77.6555 50.664 77.5515 49.96H78.6315C78.7515 50.36 78.9995 50.68 79.3755 50.92C79.7515 51.168 80.2035 51.292 80.7315 51.292C81.3315 51.292 81.8195 51.104 82.1955 50.728C82.5795 50.352 82.7715 49.824 82.7715 49.144V47.764C82.5555 48.148 82.2355 48.468 81.8115 48.724C81.3875 48.98 80.8915 49.108 80.3235 49.108C79.7395 49.108 79.2075 48.964 78.7275 48.676C78.2555 48.388 77.8835 47.984 77.6115 47.464C77.3395 46.944 77.2035 46.352 77.2035 45.688C77.2035 45.016 77.3395 44.428 77.6115 43.924C77.8835 43.412 78.2555 43.016 78.7275 42.736C79.2075 42.456 79.7395 42.316 80.3235 42.316ZM82.7715 45.7C82.7715 45.204 82.6715 44.772 82.4715 44.404C82.2715 44.036 81.9995 43.756 81.6555 43.564C81.3195 43.364 80.9475 43.264 80.5395 43.264C80.1315 43.264 79.7595 43.36 79.4235 43.552C79.0875 43.744 78.8195 44.024 78.6195 44.392C78.4195 44.76 78.3195 45.192 78.3195 45.688C78.3195 46.192 78.4195 46.632 78.6195 47.008C78.8195 47.376 79.0875 47.66 79.4235 47.86C79.7595 48.052 80.1315 48.148 80.5395 48.148C80.9475 48.148 81.3195 48.052 81.6555 47.86C81.9995 47.66 82.2715 47.376 82.4715 47.008C82.6715 46.632 82.7715 46.196 82.7715 45.7ZM91.7209 45.46C91.7209 45.668 91.7089 45.888 91.6849 46.12H86.4289C86.4689 46.768 86.6889 47.276 87.0889 47.644C87.4969 48.004 87.9889 48.184 88.5649 48.184C89.0369 48.184 89.4289 48.076 89.7409 47.86C90.0609 47.636 90.2849 47.34 90.4129 46.972H91.5889C91.4129 47.604 91.0609 48.12 90.5329 48.52C90.0049 48.912 89.3489 49.108 88.5649 49.108C87.9409 49.108 87.3809 48.968 86.8849 48.688C86.3969 48.408 86.0129 48.012 85.7329 47.5C85.4529 46.98 85.3129 46.38 85.3129 45.7C85.3129 45.02 85.4489 44.424 85.7209 43.912C85.9929 43.4 86.3729 43.008 86.8609 42.736C87.3569 42.456 87.9249 42.316 88.5649 42.316C89.1889 42.316 89.7409 42.452 90.2209 42.724C90.7009 42.996 91.0689 43.372 91.3249 43.852C91.5889 44.324 91.7209 44.86 91.7209 45.46ZM90.5929 45.232C90.5929 44.816 90.5009 44.46 90.3169 44.164C90.1329 43.86 89.8809 43.632 89.5609 43.48C89.2489 43.32 88.9009 43.24 88.5169 43.24C87.9649 43.24 87.4929 43.416 87.1009 43.768C86.7169 44.12 86.4969 44.608 86.4409 45.232H90.5929ZM96.3663 42.304C97.1663 42.304 97.8143 42.548 98.3103 43.036C98.8063 43.516 99.0543 44.212 99.0543 45.124V49H97.9743V45.28C97.9743 44.624 97.8103 44.124 97.4823 43.78C97.1543 43.428 96.7063 43.252 96.1383 43.252C95.5623 43.252 95.1023 43.432 94.7583 43.792C94.4223 44.152 94.2543 44.676 94.2543 45.364V49H93.1623V42.424H94.2543V43.36C94.4703 43.024 94.7623 42.764 95.1303 42.58C95.5063 42.396 95.9183 42.304 96.3663 42.304ZM106.838 45.46C106.838 45.668 106.826 45.888 106.802 46.12H101.546C101.586 46.768 101.806 47.276 102.206 47.644C102.614 48.004 103.106 48.184 103.682 48.184C104.154 48.184 104.546 48.076 104.858 47.86C105.178 47.636 105.402 47.34 105.53 46.972H106.706C106.53 47.604 106.178 48.12 105.65 48.52C105.122 48.912 104.466 49.108 103.682 49.108C103.058 49.108 102.498 48.968 102.002 48.688C101.514 48.408 101.13 48.012 100.85 47.5C100.57 46.98 100.43 46.38 100.43 45.7C100.43 45.02 100.566 44.424 100.838 43.912C101.11 43.4 101.49 43.008 101.978 42.736C102.474 42.456 103.042 42.316 103.682 42.316C104.306 42.316 104.858 42.452 105.338 42.724C105.818 42.996 106.186 43.372 106.442 43.852C106.706 44.324 106.838 44.86 106.838 45.46ZM105.71 45.232C105.71 44.816 105.618 44.46 105.434 44.164C105.25 43.86 104.998 43.632 104.678 43.48C104.366 43.32 104.018 43.24 103.634 43.24C103.082 43.24 102.61 43.416 102.218 43.768C101.834 44.12 101.614 44.608 101.558 45.232H105.71ZM109.371 43.492C109.563 43.116 109.835 42.824 110.187 42.616C110.547 42.408 110.983 42.304 111.495 42.304V43.432H111.207C109.983 43.432 109.371 44.096 109.371 45.424V49H108.279V42.424H109.371V43.492ZM112.348 45.688C112.348 45.016 112.484 44.428 112.756 43.924C113.028 43.412 113.4 43.016 113.872 42.736C114.352 42.456 114.884 42.316 115.468 42.316C116.044 42.316 116.544 42.44 116.968 42.688C117.392 42.936 117.708 43.248 117.916 43.624V42.424H119.02V49H117.916V47.776C117.7 48.16 117.376 48.48 116.944 48.736C116.52 48.984 116.024 49.108 115.456 49.108C114.872 49.108 114.344 48.964 113.872 48.676C113.4 48.388 113.028 47.984 112.756 47.464C112.484 46.944 112.348 46.352 112.348 45.688ZM117.916 45.7C117.916 45.204 117.816 44.772 117.616 44.404C117.416 44.036 117.144 43.756 116.8 43.564C116.464 43.364 116.092 43.264 115.684 43.264C115.276 43.264 114.904 43.36 114.568 43.552C114.232 43.744 113.964 44.024 113.764 44.392C113.564 44.76 113.464 45.192 113.464 45.688C113.464 46.192 113.564 46.632 113.764 47.008C113.964 47.376 114.232 47.66 114.568 47.86C114.904 48.052 115.276 48.148 115.684 48.148C116.092 48.148 116.464 48.052 116.8 47.86C117.144 47.66 117.416 47.376 117.616 47.008C117.816 46.632 117.916 46.196 117.916 45.7ZM122.197 43.324V47.2C122.197 47.52 122.265 47.748 122.401 47.884C122.537 48.012 122.773 48.076 123.109 48.076H123.913V49H122.929C122.321 49 121.865 48.86 121.561 48.58C121.257 48.3 121.105 47.84 121.105 47.2V43.324H120.253V42.424H121.105V40.768H122.197V42.424H123.913V43.324H122.197ZM131.237 45.46C131.237 45.668 131.225 45.888 131.201 46.12H125.945C125.985 46.768 126.205 47.276 126.605 47.644C127.013 48.004 127.505 48.184 128.081 48.184C128.553 48.184 128.945 48.076 129.257 47.86C129.577 47.636 129.801 47.34 129.929 46.972H131.105C130.929 47.604 130.577 48.12 130.049 48.52C129.521 48.912 128.865 49.108 128.081 49.108C127.457 49.108 126.897 48.968 126.401 48.688C125.913 48.408 125.529 48.012 125.249 47.5C124.969 46.98 124.829 46.38 124.829 45.7C124.829 45.02 124.965 44.424 125.237 43.912C125.509 43.4 125.889 43.008 126.377 42.736C126.873 42.456 127.441 42.316 128.081 42.316C128.705 42.316 129.257 42.452 129.737 42.724C130.217 42.996 130.585 43.372 130.841 43.852C131.105 44.324 131.237 44.86 131.237 45.46ZM130.109 45.232C130.109 44.816 130.017 44.46 129.833 44.164C129.649 43.86 129.397 43.632 129.077 43.48C128.765 43.32 128.417 43.24 128.033 43.24C127.481 43.24 127.009 43.416 126.617 43.768C126.233 44.12 126.013 44.608 125.957 45.232H130.109ZM135.469 45.688C135.469 45.016 135.605 44.428 135.877 43.924C136.149 43.412 136.521 43.016 136.993 42.736C137.473 42.456 138.005 42.316 138.589 42.316C139.165 42.316 139.665 42.44 140.089 42.688C140.513 42.936 140.829 43.248 141.037 43.624V42.424H142.141V49H141.037V47.776C140.821 48.16 140.497 48.48 140.065 48.736C139.641 48.984 139.145 49.108 138.577 49.108C137.993 49.108 137.465 48.964 136.993 48.676C136.521 48.388 136.149 47.984 135.877 47.464C135.605 46.944 135.469 46.352 135.469 45.688ZM141.037 45.7C141.037 45.204 140.937 44.772 140.737 44.404C140.537 44.036 140.265 43.756 139.921 43.564C139.585 43.364 139.213 43.264 138.805 43.264C138.397 43.264 138.025 43.36 137.689 43.552C137.353 43.744 137.085 44.024 136.885 44.392C136.685 44.76 136.585 45.192 136.585 45.688C136.585 46.192 136.685 46.632 136.885 47.008C137.085 47.376 137.353 47.66 137.689 47.86C138.025 48.052 138.397 48.148 138.805 48.148C139.213 48.148 139.585 48.052 139.921 47.86C140.265 47.66 140.537 47.376 140.737 47.008C140.937 46.632 141.037 46.196 141.037 45.7ZM147.191 42.304C147.991 42.304 148.639 42.548 149.135 43.036C149.631 43.516 149.879 44.212 149.879 45.124V49H148.799V45.28C148.799 44.624 148.635 44.124 148.307 43.78C147.979 43.428 147.531 43.252 146.963 43.252C146.387 43.252 145.927 43.432 145.583 43.792C145.247 44.152 145.079 44.676 145.079 45.364V49H143.987V42.424H145.079V43.36C145.295 43.024 145.587 42.764 145.955 42.58C146.331 42.396 146.743 42.304 147.191 42.304ZM151.254 45.688C151.254 45.016 151.39 44.428 151.662 43.924C151.934 43.412 152.306 43.016 152.778 42.736C153.258 42.456 153.794 42.316 154.386 42.316C154.898 42.316 155.374 42.436 155.814 42.676C156.254 42.908 156.59 43.216 156.822 43.6V40.12H157.926V49H156.822V47.764C156.606 48.156 156.286 48.48 155.862 48.736C155.438 48.984 154.942 49.108 154.374 49.108C153.79 49.108 153.258 48.964 152.778 48.676C152.306 48.388 151.934 47.984 151.662 47.464C151.39 46.944 151.254 46.352 151.254 45.688ZM156.822 45.7C156.822 45.204 156.722 44.772 156.522 44.404C156.322 44.036 156.05 43.756 155.706 43.564C155.37 43.364 154.998 43.264 154.59 43.264C154.182 43.264 153.81 43.36 153.474 43.552C153.138 43.744 152.87 44.024 152.67 44.392C152.47 44.76 152.37 45.192 152.37 45.688C152.37 46.192 152.47 46.632 152.67 47.008C152.87 47.376 153.138 47.66 153.474 47.86C153.81 48.052 154.182 48.148 154.59 48.148C154.998 48.148 155.37 48.052 155.706 47.86C156.05 47.66 156.322 47.376 156.522 47.008C156.722 46.632 156.822 46.196 156.822 45.7ZM39.516 63.688C39.516 63.016 39.652 62.428 39.924 61.924C40.196 61.412 40.568 61.016 41.04 60.736C41.52 60.456 42.056 60.316 42.648 60.316C43.16 60.316 43.636 60.436 44.076 60.676C44.516 60.908 44.852 61.216 45.084 61.6V58.12H46.188V67H45.084V65.764C44.868 66.156 44.548 66.48 44.124 66.736C43.7 66.984 43.204 67.108 42.636 67.108C42.052 67.108 41.52 66.964 41.04 66.676C40.568 66.388 40.196 65.984 39.924 65.464C39.652 64.944 39.516 64.352 39.516 63.688ZM45.084 63.7C45.084 63.204 44.984 62.772 44.784 62.404C44.584 62.036 44.312 61.756 43.968 61.564C43.632 61.364 43.26 61.264 42.852 61.264C42.444 61.264 42.072 61.36 41.736 61.552C41.4 61.744 41.132 62.024 40.932 62.392C40.732 62.76 40.632 63.192 40.632 63.688C40.632 64.192 40.732 64.632 40.932 65.008C41.132 65.376 41.4 65.66 41.736 65.86C42.072 66.052 42.444 66.148 42.852 66.148C43.26 66.148 43.632 66.052 43.968 65.86C44.312 65.66 44.584 65.376 44.784 65.008C44.984 64.632 45.084 64.196 45.084 63.7ZM50.9014 67.108C50.2854 67.108 49.7254 66.968 49.2214 66.688C48.7254 66.408 48.3334 66.012 48.0454 65.5C47.7654 64.98 47.6254 64.38 47.6254 63.7C47.6254 63.028 47.7694 62.436 48.0574 61.924C48.3534 61.404 48.7534 61.008 49.2574 60.736C49.7614 60.456 50.3254 60.316 50.9494 60.316C51.5734 60.316 52.1374 60.456 52.6414 60.736C53.1454 61.008 53.5414 61.4 53.8294 61.912C54.1254 62.424 54.2734 63.02 54.2734 63.7C54.2734 64.38 54.1214 64.98 53.8174 65.5C53.5214 66.012 53.1174 66.408 52.6054 66.688C52.0934 66.968 51.5254 67.108 50.9014 67.108ZM50.9014 66.148C51.2934 66.148 51.6614 66.056 52.0054 65.872C52.3494 65.688 52.6254 65.412 52.8334 65.044C53.0494 64.676 53.1574 64.228 53.1574 63.7C53.1574 63.172 53.0534 62.724 52.8454 62.356C52.6374 61.988 52.3654 61.716 52.0294 61.54C51.6934 61.356 51.3294 61.264 50.9374 61.264C50.5374 61.264 50.1694 61.356 49.8334 61.54C49.5054 61.716 49.2414 61.988 49.0414 62.356C48.8414 62.724 48.7414 63.172 48.7414 63.7C48.7414 64.236 48.8374 64.688 49.0294 65.056C49.2294 65.424 49.4934 65.7 49.8214 65.884C50.1494 66.06 50.5094 66.148 50.9014 66.148ZM64.4692 60.424L62.4172 67H61.2892L59.7052 61.78L58.1212 67H56.9932L54.9292 60.424H56.0452L57.5572 65.944L59.1892 60.424H60.3052L61.9012 65.956L63.3892 60.424H64.4692ZM68.7569 60.304C69.5569 60.304 70.2049 60.548 70.7009 61.036C71.1969 61.516 71.4449 62.212 71.4449 63.124V67H70.3649V63.28C70.3649 62.624 70.2009 62.124 69.8729 61.78C69.5449 61.428 69.0969 61.252 68.5289 61.252C67.9529 61.252 67.4929 61.432 67.1489 61.792C66.8129 62.152 66.6449 62.676 66.6449 63.364V67H65.5529V60.424H66.6449V61.36C66.8609 61.024 67.1529 60.764 67.5209 60.58C67.8969 60.396 68.3089 60.304 68.7569 60.304ZM74.3207 58.12V67H73.2287V58.12H74.3207ZM79.0498 67.108C78.4338 67.108 77.8738 66.968 77.3698 66.688C76.8738 66.408 76.4818 66.012 76.1938 65.5C75.9138 64.98 75.7738 64.38 75.7738 63.7C75.7738 63.028 75.9178 62.436 76.2058 61.924C76.5018 61.404 76.9018 61.008 77.4058 60.736C77.9098 60.456 78.4738 60.316 79.0978 60.316C79.7218 60.316 80.2858 60.456 80.7898 60.736C81.2938 61.008 81.6898 61.4 81.9778 61.912C82.2738 62.424 82.4218 63.02 82.4218 63.7C82.4218 64.38 82.2698 64.98 81.9658 65.5C81.6698 66.012 81.2658 66.408 80.7538 66.688C80.2418 66.968 79.6738 67.108 79.0498 67.108ZM79.0498 66.148C79.4418 66.148 79.8098 66.056 80.1538 65.872C80.4978 65.688 80.7738 65.412 80.9818 65.044C81.1978 64.676 81.3058 64.228 81.3058 63.7C81.3058 63.172 81.2018 62.724 80.9938 62.356C80.7858 61.988 80.5138 61.716 80.1778 61.54C79.8418 61.356 79.4778 61.264 79.0858 61.264C78.6858 61.264 78.3178 61.356 77.9818 61.54C77.6538 61.716 77.3898 61.988 77.1898 62.356C76.9898 62.724 76.8898 63.172 76.8898 63.7C76.8898 64.236 76.9858 64.688 77.1778 65.056C77.3778 65.424 77.6418 65.7 77.9698 65.884C78.2978 66.06 78.6578 66.148 79.0498 66.148ZM83.4496 63.688C83.4496 63.016 83.5856 62.428 83.8576 61.924C84.1296 61.412 84.5016 61.016 84.9736 60.736C85.4536 60.456 85.9856 60.316 86.5696 60.316C87.1456 60.316 87.6456 60.44 88.0696 60.688C88.4936 60.936 88.8096 61.248 89.0176 61.624V60.424H90.1216V67H89.0176V65.776C88.8016 66.16 88.4776 66.48 88.0456 66.736C87.6216 66.984 87.1256 67.108 86.5576 67.108C85.9736 67.108 85.4456 66.964 84.9736 66.676C84.5016 66.388 84.1296 65.984 83.8576 65.464C83.5856 64.944 83.4496 64.352 83.4496 63.688ZM89.0176 63.7C89.0176 63.204 88.9176 62.772 88.7176 62.404C88.5176 62.036 88.2456 61.756 87.9016 61.564C87.5656 61.364 87.1936 61.264 86.7856 61.264C86.3776 61.264 86.0056 61.36 85.6696 61.552C85.3336 61.744 85.0656 62.024 84.8656 62.392C84.6656 62.76 84.5656 63.192 84.5656 63.688C84.5656 64.192 84.6656 64.632 84.8656 65.008C85.0656 65.376 85.3336 65.66 85.6696 65.86C86.0056 66.052 86.3776 66.148 86.7856 66.148C87.1936 66.148 87.5656 66.052 87.9016 65.86C88.2456 65.66 88.5176 65.376 88.7176 65.008C88.9176 64.632 89.0176 64.196 89.0176 63.7ZM91.559 63.688C91.559 63.016 91.695 62.428 91.967 61.924C92.239 61.412 92.611 61.016 93.083 60.736C93.563 60.456 94.099 60.316 94.691 60.316C95.203 60.316 95.679 60.436 96.119 60.676C96.559 60.908 96.895 61.216 97.127 61.6V58.12H98.231V67H97.127V65.764C96.911 66.156 96.591 66.48 96.167 66.736C95.743 66.984 95.247 67.108 94.679 67.108C94.095 67.108 93.563 66.964 93.083 66.676C92.611 66.388 92.239 65.984 91.967 65.464C91.695 64.944 91.559 64.352 91.559 63.688ZM97.127 63.7C97.127 63.204 97.027 62.772 96.827 62.404C96.627 62.036 96.355 61.756 96.011 61.564C95.675 61.364 95.303 61.264 94.895 61.264C94.487 61.264 94.115 61.36 93.779 61.552C93.443 61.744 93.175 62.024 92.975 62.392C92.775 62.76 92.675 63.192 92.675 63.688C92.675 64.192 92.775 64.632 92.975 65.008C93.175 65.376 93.443 65.66 93.779 65.86C94.115 66.052 94.487 66.148 94.895 66.148C95.303 66.148 95.675 66.052 96.011 65.86C96.355 65.66 96.627 65.376 96.827 65.008C97.027 64.632 97.127 64.196 97.127 63.7ZM108.94 60.424L104.98 70.096H103.852L105.148 66.928L102.496 60.424H103.708L105.772 65.752L107.812 60.424H108.94ZM112.905 67.108C112.289 67.108 111.729 66.968 111.225 66.688C110.729 66.408 110.337 66.012 110.049 65.5C109.769 64.98 109.629 64.38 109.629 63.7C109.629 63.028 109.773 62.436 110.061 61.924C110.357 61.404 110.757 61.008 111.261 60.736C111.765 60.456 112.329 60.316 112.953 60.316C113.577 60.316 114.141 60.456 114.645 60.736C115.149 61.008 115.545 61.4 115.833 61.912C116.129 62.424 116.277 63.02 116.277 63.7C116.277 64.38 116.125 64.98 115.821 65.5C115.525 66.012 115.121 66.408 114.609 66.688C114.097 66.968 113.529 67.108 112.905 67.108ZM112.905 66.148C113.297 66.148 113.665 66.056 114.009 65.872C114.353 65.688 114.629 65.412 114.837 65.044C115.053 64.676 115.161 64.228 115.161 63.7C115.161 63.172 115.057 62.724 114.849 62.356C114.641 61.988 114.369 61.716 114.033 61.54C113.697 61.356 113.333 61.264 112.941 61.264C112.541 61.264 112.173 61.356 111.837 61.54C111.509 61.716 111.245 61.988 111.045 62.356C110.845 62.724 110.745 63.172 110.745 63.7C110.745 64.236 110.841 64.688 111.033 65.056C111.233 65.424 111.497 65.7 111.825 65.884C112.153 66.06 112.513 66.148 112.905 66.148ZM123.545 60.424V67H122.453V66.028C122.245 66.364 121.953 66.628 121.577 66.82C121.209 67.004 120.801 67.096 120.353 67.096C119.841 67.096 119.381 66.992 118.973 66.784C118.565 66.568 118.241 66.248 118.001 65.824C117.769 65.4 117.653 64.884 117.653 64.276V60.424H118.733V64.132C118.733 64.78 118.897 65.28 119.225 65.632C119.553 65.976 120.001 66.148 120.569 66.148C121.153 66.148 121.613 65.968 121.949 65.608C122.285 65.248 122.453 64.724 122.453 64.036V60.424H123.545ZM126.481 61.492C126.673 61.116 126.945 60.824 127.297 60.616C127.657 60.408 128.093 60.304 128.605 60.304V61.432H128.317C127.093 61.432 126.481 62.096 126.481 63.424V67H125.389V60.424H126.481V61.492ZM39.516 81.7C39.516 81.02 39.652 80.428 39.924 79.924C40.196 79.412 40.572 79.016 41.052 78.736C41.54 78.456 42.096 78.316 42.72 78.316C43.528 78.316 44.192 78.512 44.712 78.904C45.24 79.296 45.588 79.84 45.756 80.536H44.58C44.468 80.136 44.248 79.82 43.92 79.588C43.6 79.356 43.2 79.24 42.72 79.24C42.096 79.24 41.592 79.456 41.208 79.888C40.824 80.312 40.632 80.916 40.632 81.7C40.632 82.492 40.824 83.104 41.208 83.536C41.592 83.968 42.096 84.184 42.72 84.184C43.2 84.184 43.6 84.072 43.92 83.848C44.24 83.624 44.46 83.304 44.58 82.888H45.756C45.58 83.56 45.228 84.1 44.7 84.508C44.172 84.908 43.512 85.108 42.72 85.108C42.096 85.108 41.54 84.968 41.052 84.688C40.572 84.408 40.196 84.012 39.924 83.5C39.652 82.988 39.516 82.388 39.516 81.7ZM53.0451 78.424V85H51.9531V84.028C51.7451 84.364 51.4531 84.628 51.0771 84.82C50.7091 85.004 50.3011 85.096 49.8531 85.096C49.3411 85.096 48.8811 84.992 48.4731 84.784C48.0651 84.568 47.7411 84.248 47.5011 83.824C47.2691 83.4 47.1531 82.884 47.1531 82.276V78.424H48.2331V82.132C48.2331 82.78 48.3971 83.28 48.7251 83.632C49.0531 83.976 49.5011 84.148 50.0691 84.148C50.6531 84.148 51.1131 83.968 51.4491 83.608C51.7851 83.248 51.9531 82.724 51.9531 82.036V78.424H53.0451ZM57.2168 85.108C56.7128 85.108 56.2608 85.024 55.8608 84.856C55.4608 84.68 55.1448 84.44 54.9128 84.136C54.6808 83.824 54.5528 83.468 54.5288 83.068H55.6568C55.6888 83.396 55.8408 83.664 56.1128 83.872C56.3928 84.08 56.7568 84.184 57.2048 84.184C57.6208 84.184 57.9488 84.092 58.1888 83.908C58.4288 83.724 58.5488 83.492 58.5488 83.212C58.5488 82.924 58.4208 82.712 58.1648 82.576C57.9088 82.432 57.5128 82.292 56.9768 82.156C56.4888 82.028 56.0888 81.9 55.7768 81.772C55.4728 81.636 55.2088 81.44 54.9848 81.184C54.7688 80.92 54.6608 80.576 54.6608 80.152C54.6608 79.816 54.7608 79.508 54.9608 79.228C55.1608 78.948 55.4448 78.728 55.8128 78.568C56.1808 78.4 56.6008 78.316 57.0728 78.316C57.8008 78.316 58.3888 78.5 58.8368 78.868C59.2848 79.236 59.5248 79.74 59.5568 80.38H58.4648C58.4408 80.036 58.3008 79.76 58.0448 79.552C57.7968 79.344 57.4608 79.24 57.0368 79.24C56.6448 79.24 56.3328 79.324 56.1008 79.492C55.8688 79.66 55.7528 79.88 55.7528 80.152C55.7528 80.368 55.8208 80.548 55.9568 80.692C56.1008 80.828 56.2768 80.94 56.4848 81.028C56.7008 81.108 56.9968 81.2 57.3728 81.304C57.8448 81.432 58.2288 81.56 58.5248 81.688C58.8208 81.808 59.0728 81.992 59.2808 82.24C59.4968 82.488 59.6088 82.812 59.6168 83.212C59.6168 83.572 59.5168 83.896 59.3168 84.184C59.1168 84.472 58.8328 84.7 58.4648 84.868C58.1048 85.028 57.6888 85.108 57.2168 85.108ZM62.4904 79.324V83.2C62.4904 83.52 62.5584 83.748 62.6944 83.884C62.8304 84.012 63.0664 84.076 63.4024 84.076H64.2064V85H63.2224C62.6144 85 62.1584 84.86 61.8544 84.58C61.5504 84.3 61.3984 83.84 61.3984 83.2V79.324H60.5464V78.424H61.3984V76.768H62.4904V78.424H64.2064V79.324H62.4904ZM68.3975 85.108C67.7815 85.108 67.2215 84.968 66.7175 84.688C66.2215 84.408 65.8295 84.012 65.5415 83.5C65.2615 82.98 65.1215 82.38 65.1215 81.7C65.1215 81.028 65.2655 80.436 65.5535 79.924C65.8495 79.404 66.2495 79.008 66.7535 78.736C67.2575 78.456 67.8215 78.316 68.4455 78.316C69.0695 78.316 69.6335 78.456 70.1375 78.736C70.6415 79.008 71.0375 79.4 71.3255 79.912C71.6215 80.424 71.7695 81.02 71.7695 81.7C71.7695 82.38 71.6175 82.98 71.3135 83.5C71.0175 84.012 70.6135 84.408 70.1015 84.688C69.5895 84.968 69.0215 85.108 68.3975 85.108ZM68.3975 84.148C68.7895 84.148 69.1575 84.056 69.5015 83.872C69.8455 83.688 70.1215 83.412 70.3295 83.044C70.5455 82.676 70.6535 82.228 70.6535 81.7C70.6535 81.172 70.5495 80.724 70.3415 80.356C70.1335 79.988 69.8615 79.716 69.5255 79.54C69.1895 79.356 68.8255 79.264 68.4335 79.264C68.0335 79.264 67.6655 79.356 67.3295 79.54C67.0015 79.716 66.7375 79.988 66.5375 80.356C66.3375 80.724 66.2375 81.172 66.2375 81.7C66.2375 82.236 66.3335 82.688 66.5255 83.056C66.7255 83.424 66.9895 83.7 67.3175 83.884C67.6455 84.06 68.0055 84.148 68.3975 84.148ZM81.1133 78.304C81.6253 78.304 82.0813 78.412 82.4813 78.628C82.8813 78.836 83.1973 79.152 83.4293 79.576C83.6613 80 83.7773 80.516 83.7773 81.124V85H82.6973V81.28C82.6973 80.624 82.5333 80.124 82.2053 79.78C81.8853 79.428 81.4493 79.252 80.8973 79.252C80.3293 79.252 79.8773 79.436 79.5413 79.804C79.2053 80.164 79.0373 80.688 79.0373 81.376V85H77.9573V81.28C77.9573 80.624 77.7933 80.124 77.4653 79.78C77.1453 79.428 76.7093 79.252 76.1573 79.252C75.5893 79.252 75.1373 79.436 74.8013 79.804C74.4653 80.164 74.2973 80.688 74.2973 81.376V85H73.2053V78.424H74.2973V79.372C74.5133 79.028 74.8013 78.764 75.1613 78.58C75.5293 78.396 75.9333 78.304 76.3733 78.304C76.9253 78.304 77.4133 78.428 77.8373 78.676C78.2613 78.924 78.5773 79.288 78.7853 79.768C78.9693 79.304 79.2733 78.944 79.6973 78.688C80.1213 78.432 80.5933 78.304 81.1133 78.304ZM86.1325 77.356C85.9245 77.356 85.7485 77.284 85.6045 77.14C85.4605 76.996 85.3885 76.82 85.3885 76.612C85.3885 76.404 85.4605 76.228 85.6045 76.084C85.7485 75.94 85.9245 75.868 86.1325 75.868C86.3325 75.868 86.5005 75.94 86.6365 76.084C86.7805 76.228 86.8525 76.404 86.8525 76.612C86.8525 76.82 86.7805 76.996 86.6365 77.14C86.5005 77.284 86.3325 77.356 86.1325 77.356ZM86.6605 78.424V85H85.5685V78.424H86.6605ZM89.3377 84.1H92.5657V85H88.0897V84.1L91.2817 79.312H88.1137V78.424H92.5417V79.312L89.3377 84.1ZM99.9826 81.46C99.9826 81.668 99.9706 81.888 99.9466 82.12H94.6906C94.7306 82.768 94.9506 83.276 95.3506 83.644C95.7586 84.004 96.2506 84.184 96.8266 84.184C97.2986 84.184 97.6906 84.076 98.0026 83.86C98.3226 83.636 98.5466 83.34 98.6746 82.972H99.8506C99.6746 83.604 99.3226 84.12 98.7946 84.52C98.2666 84.912 97.6106 85.108 96.8266 85.108C96.2026 85.108 95.6426 84.968 95.1466 84.688C94.6586 84.408 94.2746 84.012 93.9946 83.5C93.7146 82.98 93.5746 82.38 93.5746 81.7C93.5746 81.02 93.7106 80.424 93.9826 79.912C94.2546 79.4 94.6346 79.008 95.1226 78.736C95.6186 78.456 96.1866 78.316 96.8266 78.316C97.4506 78.316 98.0026 78.452 98.4826 78.724C98.9626 78.996 99.3306 79.372 99.5866 79.852C99.8506 80.324 99.9826 80.86 99.9826 81.46ZM98.8546 81.232C98.8546 80.816 98.7626 80.46 98.5786 80.164C98.3946 79.86 98.1426 79.632 97.8226 79.48C97.5106 79.32 97.1626 79.24 96.7786 79.24C96.2266 79.24 95.7546 79.416 95.3626 79.768C94.9786 80.12 94.7586 80.608 94.7026 81.232H98.8546ZM101.016 81.688C101.016 81.016 101.152 80.428 101.424 79.924C101.696 79.412 102.068 79.016 102.54 78.736C103.02 78.456 103.556 78.316 104.148 78.316C104.66 78.316 105.136 78.436 105.576 78.676C106.016 78.908 106.352 79.216 106.584 79.6V76.12H107.688V85H106.584V83.764C106.368 84.156 106.048 84.48 105.624 84.736C105.2 84.984 104.704 85.108 104.136 85.108C103.552 85.108 103.02 84.964 102.54 84.676C102.068 84.388 101.696 83.984 101.424 83.464C101.152 82.944 101.016 82.352 101.016 81.688ZM106.584 81.7C106.584 81.204 106.484 80.772 106.284 80.404C106.084 80.036 105.812 79.756 105.468 79.564C105.132 79.364 104.76 79.264 104.352 79.264C103.944 79.264 103.572 79.36 103.236 79.552C102.9 79.744 102.632 80.024 102.432 80.392C102.232 80.76 102.132 81.192 102.132 81.688C102.132 82.192 102.232 82.632 102.432 83.008C102.632 83.376 102.9 83.66 103.236 83.86C103.572 84.052 103.944 84.148 104.352 84.148C104.76 84.148 105.132 84.052 105.468 83.86C105.812 83.66 106.084 83.376 106.284 83.008C106.484 82.632 106.584 82.196 106.584 81.7ZM112.325 81.688C112.325 81.016 112.461 80.428 112.733 79.924C113.005 79.412 113.377 79.016 113.849 78.736C114.329 78.456 114.861 78.316 115.445 78.316C116.021 78.316 116.521 78.44 116.945 78.688C117.369 78.936 117.685 79.248 117.893 79.624V78.424H118.997V85H117.893V83.776C117.677 84.16 117.353 84.48 116.921 84.736C116.497 84.984 116.001 85.108 115.433 85.108C114.849 85.108 114.321 84.964 113.849 84.676C113.377 84.388 113.005 83.984 112.733 83.464C112.461 82.944 112.325 82.352 112.325 81.688ZM117.893 81.7C117.893 81.204 117.793 80.772 117.593 80.404C117.393 80.036 117.121 79.756 116.777 79.564C116.441 79.364 116.069 79.264 115.661 79.264C115.253 79.264 114.881 79.36 114.545 79.552C114.209 79.744 113.941 80.024 113.741 80.392C113.541 80.76 113.441 81.192 113.441 81.688C113.441 82.192 113.541 82.632 113.741 83.008C113.941 83.376 114.209 83.66 114.545 83.86C114.881 84.052 115.253 84.148 115.661 84.148C116.069 84.148 116.441 84.052 116.777 83.86C117.121 83.66 117.393 83.376 117.593 83.008C117.793 82.632 117.893 82.196 117.893 81.7ZM124.046 78.304C124.846 78.304 125.494 78.548 125.99 79.036C126.486 79.516 126.734 80.212 126.734 81.124V85H125.654V81.28C125.654 80.624 125.49 80.124 125.162 79.78C124.834 79.428 124.386 79.252 123.818 79.252C123.242 79.252 122.782 79.432 122.438 79.792C122.102 80.152 121.934 80.676 121.934 81.364V85H120.842V78.424H121.934V79.36C122.15 79.024 122.442 78.764 122.81 78.58C123.186 78.396 123.598 78.304 124.046 78.304ZM128.11 81.688C128.11 81.016 128.246 80.428 128.518 79.924C128.79 79.412 129.162 79.016 129.634 78.736C130.114 78.456 130.65 78.316 131.242 78.316C131.754 78.316 132.23 78.436 132.67 78.676C133.11 78.908 133.446 79.216 133.678 79.6V76.12H134.782V85H133.678V83.764C133.462 84.156 133.142 84.48 132.718 84.736C132.294 84.984 131.798 85.108 131.23 85.108C130.646 85.108 130.114 84.964 129.634 84.676C129.162 84.388 128.79 83.984 128.518 83.464C128.246 82.944 128.11 82.352 128.11 81.688ZM133.678 81.7C133.678 81.204 133.578 80.772 133.378 80.404C133.178 80.036 132.906 79.756 132.562 79.564C132.226 79.364 131.854 79.264 131.446 79.264C131.038 79.264 130.666 79.36 130.33 79.552C129.994 79.744 129.726 80.024 129.526 80.392C129.326 80.76 129.226 81.192 129.226 81.688C129.226 82.192 129.326 82.632 129.526 83.008C129.726 83.376 129.994 83.66 130.33 83.86C130.666 84.052 131.038 84.148 131.446 84.148C131.854 84.148 132.226 84.052 132.562 83.86C132.906 83.66 133.178 83.376 133.378 83.008C133.578 82.632 133.678 82.196 133.678 81.7ZM145.658 78.424V85H144.566V84.028C144.358 84.364 144.066 84.628 143.69 84.82C143.322 85.004 142.914 85.096 142.466 85.096C141.954 85.096 141.494 84.992 141.086 84.784C140.678 84.568 140.354 84.248 140.114 83.824C139.882 83.4 139.766 82.884 139.766 82.276V78.424H140.846V82.132C140.846 82.78 141.01 83.28 141.338 83.632C141.666 83.976 142.114 84.148 142.682 84.148C143.266 84.148 143.726 83.968 144.062 83.608C144.398 83.248 144.566 82.724 144.566 82.036V78.424H145.658ZM148.594 79.636C148.81 79.26 149.13 78.948 149.554 78.7C149.986 78.444 150.486 78.316 151.054 78.316C151.638 78.316 152.166 78.456 152.638 78.736C153.118 79.016 153.494 79.412 153.766 79.924C154.038 80.428 154.174 81.016 154.174 81.688C154.174 82.352 154.038 82.944 153.766 83.464C153.494 83.984 153.118 84.388 152.638 84.676C152.166 84.964 151.638 85.108 151.054 85.108C150.494 85.108 149.998 84.984 149.566 84.736C149.142 84.48 148.818 84.164 148.594 83.788V88.12H147.502V78.424H148.594V79.636ZM153.058 81.688C153.058 81.192 152.958 80.76 152.758 80.392C152.558 80.024 152.286 79.744 151.942 79.552C151.606 79.36 151.234 79.264 150.826 79.264C150.426 79.264 150.054 79.364 149.71 79.564C149.374 79.756 149.102 80.04 148.894 80.416C148.694 80.784 148.594 81.212 148.594 81.7C148.594 82.196 148.694 82.632 148.894 83.008C149.102 83.376 149.374 83.66 149.71 83.86C150.054 84.052 150.426 84.148 150.826 84.148C151.234 84.148 151.606 84.052 151.942 83.86C152.286 83.66 152.558 83.376 152.758 83.008C152.958 82.632 153.058 82.192 153.058 81.688ZM160.143 79.324V83.2C160.143 83.52 160.211 83.748 160.347 83.884C160.483 84.012 160.719 84.076 161.055 84.076H161.859V85H160.875C160.267 85 159.811 84.86 159.507 84.58C159.203 84.3 159.051 83.84 159.051 83.2V79.324H158.199V78.424H159.051V76.768H160.143V78.424H161.859V79.324H160.143ZM166.05 85.108C165.434 85.108 164.874 84.968 164.37 84.688C163.874 84.408 163.482 84.012 163.194 83.5C162.914 82.98 162.774 82.38 162.774 81.7C162.774 81.028 162.918 80.436 163.206 79.924C163.502 79.404 163.902 79.008 164.406 78.736C164.91 78.456 165.474 78.316 166.098 78.316C166.722 78.316 167.286 78.456 167.79 78.736C168.294 79.008 168.69 79.4 168.978 79.912C169.274 80.424 169.422 81.02 169.422 81.7C169.422 82.38 169.27 82.98 168.966 83.5C168.67 84.012 168.266 84.408 167.754 84.688C167.242 84.968 166.674 85.108 166.05 85.108ZM166.05 84.148C166.442 84.148 166.81 84.056 167.154 83.872C167.498 83.688 167.774 83.412 167.982 83.044C168.198 82.676 168.306 82.228 168.306 81.7C168.306 81.172 168.202 80.724 167.994 80.356C167.786 79.988 167.514 79.716 167.178 79.54C166.842 79.356 166.478 79.264 166.086 79.264C165.686 79.264 165.318 79.356 164.982 79.54C164.654 79.716 164.39 79.988 164.19 80.356C163.99 80.724 163.89 81.172 163.89 81.7C163.89 82.236 163.986 82.688 164.178 83.056C164.378 83.424 164.642 83.7 164.97 83.884C165.298 84.06 165.658 84.148 166.05 84.148ZM39.516 99.688C39.516 99.016 39.652 98.428 39.924 97.924C40.196 97.412 40.568 97.016 41.04 96.736C41.52 96.456 42.056 96.316 42.648 96.316C43.16 96.316 43.636 96.436 44.076 96.676C44.516 96.908 44.852 97.216 45.084 97.6V94.12H46.188V103H45.084V101.764C44.868 102.156 44.548 102.48 44.124 102.736C43.7 102.984 43.204 103.108 42.636 103.108C42.052 103.108 41.52 102.964 41.04 102.676C40.568 102.388 40.196 101.984 39.924 101.464C39.652 100.944 39.516 100.352 39.516 99.688ZM45.084 99.7C45.084 99.204 44.984 98.772 44.784 98.404C44.584 98.036 44.312 97.756 43.968 97.564C43.632 97.364 43.26 97.264 42.852 97.264C42.444 97.264 42.072 97.36 41.736 97.552C41.4 97.744 41.132 98.024 40.932 98.392C40.732 98.76 40.632 99.192 40.632 99.688C40.632 100.192 40.732 100.632 40.932 101.008C41.132 101.376 41.4 101.66 41.736 101.86C42.072 102.052 42.444 102.148 42.852 102.148C43.26 102.148 43.632 102.052 43.968 101.86C44.312 101.66 44.584 101.376 44.784 101.008C44.984 100.632 45.084 100.196 45.084 99.7ZM47.6254 99.688C47.6254 99.016 47.7614 98.428 48.0334 97.924C48.3054 97.412 48.6774 97.016 49.1494 96.736C49.6294 96.456 50.1614 96.316 50.7454 96.316C51.3214 96.316 51.8214 96.44 52.2454 96.688C52.6694 96.936 52.9854 97.248 53.1934 97.624V96.424H54.2974V103H53.1934V101.776C52.9774 102.16 52.6534 102.48 52.2214 102.736C51.7974 102.984 51.3014 103.108 50.7334 103.108C50.1494 103.108 49.6214 102.964 49.1494 102.676C48.6774 102.388 48.3054 101.984 48.0334 101.464C47.7614 100.944 47.6254 100.352 47.6254 99.688ZM53.1934 99.7C53.1934 99.204 53.0934 98.772 52.8934 98.404C52.6934 98.036 52.4214 97.756 52.0774 97.564C51.7414 97.364 51.3694 97.264 50.9614 97.264C50.5534 97.264 50.1814 97.36 49.8454 97.552C49.5094 97.744 49.2414 98.024 49.0414 98.392C48.8414 98.76 48.7414 99.192 48.7414 99.688C48.7414 100.192 48.8414 100.632 49.0414 101.008C49.2414 101.376 49.5094 101.66 49.8454 101.86C50.1814 102.052 50.5534 102.148 50.9614 102.148C51.3694 102.148 51.7414 102.052 52.0774 101.86C52.4214 101.66 52.6934 101.376 52.8934 101.008C53.0934 100.632 53.1934 100.196 53.1934 99.7ZM57.4748 97.324V101.2C57.4748 101.52 57.5428 101.748 57.6788 101.884C57.8148 102.012 58.0508 102.076 58.3867 102.076H59.1908V103H58.2068C57.5988 103 57.1428 102.86 56.8388 102.58C56.5348 102.3 56.3828 101.84 56.3828 101.2V97.324H55.5308V96.424H56.3828V94.768H57.4748V96.424H59.1908V97.324H57.4748ZM66.5138 99.46C66.5138 99.668 66.5018 99.888 66.4778 100.12H61.2218C61.2618 100.768 61.4818 101.276 61.8818 101.644C62.2898 102.004 62.7818 102.184 63.3578 102.184C63.8298 102.184 64.2218 102.076 64.5338 101.86C64.8538 101.636 65.0778 101.34 65.2058 100.972H66.3818C66.2058 101.604 65.8538 102.12 65.3258 102.52C64.7978 102.912 64.1418 103.108 63.3578 103.108C62.7338 103.108 62.1738 102.968 61.6778 102.688C61.1898 102.408 60.8058 102.012 60.5258 101.5C60.2458 100.98 60.1058 100.38 60.1058 99.7C60.1058 99.02 60.2418 98.424 60.5138 97.912C60.7858 97.4 61.1658 97.008 61.6538 96.736C62.1498 96.456 62.7178 96.316 63.3578 96.316C63.9818 96.316 64.5338 96.452 65.0138 96.724C65.4938 96.996 65.8618 97.372 66.1178 97.852C66.3818 98.324 66.5138 98.86 66.5138 99.46ZM65.3858 99.232C65.3858 98.816 65.2938 98.46 65.1098 98.164C64.9258 97.86 64.6738 97.632 64.3538 97.48C64.0418 97.32 63.6938 97.24 63.3098 97.24C62.7578 97.24 62.2858 97.416 61.8938 97.768C61.5098 98.12 61.2898 98.608 61.2338 99.232H65.3858ZM76.3025 94.636V95.524H74.0225V103H72.9305V95.524H70.6385V94.636H76.3025ZM83.6467 99.46C83.6467 99.668 83.6347 99.888 83.6107 100.12H78.3547C78.3947 100.768 78.6147 101.276 79.0147 101.644C79.4227 102.004 79.9147 102.184 80.4907 102.184C80.9627 102.184 81.3547 102.076 81.6667 101.86C81.9867 101.636 82.2107 101.34 82.3387 100.972H83.5147C83.3387 101.604 82.9867 102.12 82.4587 102.52C81.9307 102.912 81.2747 103.108 80.4907 103.108C79.8667 103.108 79.3067 102.968 78.8107 102.688C78.3227 102.408 77.9387 102.012 77.6587 101.5C77.3787 100.98 77.2387 100.38 77.2387 99.7C77.2387 99.02 77.3747 98.424 77.6467 97.912C77.9187 97.4 78.2987 97.008 78.7867 96.736C79.2827 96.456 79.8507 96.316 80.4907 96.316C81.1147 96.316 81.6667 96.452 82.1467 96.724C82.6267 96.996 82.9947 97.372 83.2507 97.852C83.5147 98.324 83.6467 98.86 83.6467 99.46ZM82.5187 99.232C82.5187 98.816 82.4267 98.46 82.2427 98.164C82.0587 97.86 81.8067 97.632 81.4867 97.48C81.1747 97.32 80.8267 97.24 80.4427 97.24C79.8907 97.24 79.4187 97.416 79.0267 97.768C78.6427 98.12 78.4227 98.608 78.3667 99.232H82.5187ZM86.1801 97.492C86.3721 97.116 86.6441 96.824 86.9961 96.616C87.3561 96.408 87.7921 96.304 88.3041 96.304V97.432H88.0161C86.7921 97.432 86.1801 98.096 86.1801 99.424V103H85.0881V96.424H86.1801V97.492ZM97.4726 96.304C97.9846 96.304 98.4406 96.412 98.8406 96.628C99.2406 96.836 99.5566 97.152 99.7886 97.576C100.021 98 100.137 98.516 100.137 99.124V103H99.0566V99.28C99.0566 98.624 98.8926 98.124 98.5646 97.78C98.2446 97.428 97.8086 97.252 97.2566 97.252C96.6886 97.252 96.2366 97.436 95.9006 97.804C95.5646 98.164 95.3966 98.688 95.3966 99.376V103H94.3166V99.28C94.3166 98.624 94.1526 98.124 93.8246 97.78C93.5046 97.428 93.0686 97.252 92.5166 97.252C91.9486 97.252 91.4966 97.436 91.1606 97.804C90.8246 98.164 90.6566 98.688 90.6566 99.376V103H89.5646V96.424H90.6566V97.372C90.8726 97.028 91.1606 96.764 91.5206 96.58C91.8886 96.396 92.2926 96.304 92.7326 96.304C93.2846 96.304 93.7726 96.428 94.1966 96.676C94.6206 96.924 94.9366 97.288 95.1446 97.768C95.3286 97.304 95.6326 96.944 96.0566 96.688C96.4806 96.432 96.9526 96.304 97.4726 96.304ZM104.256 103.108C103.752 103.108 103.3 103.024 102.9 102.856C102.5 102.68 102.184 102.44 101.952 102.136C101.72 101.824 101.592 101.468 101.568 101.068H102.696C102.728 101.396 102.88 101.664 103.152 101.872C103.432 102.08 103.796 102.184 104.244 102.184C104.66 102.184 104.988 102.092 105.228 101.908C105.468 101.724 105.588 101.492 105.588 101.212C105.588 100.924 105.46 100.712 105.204 100.576C104.948 100.432 104.552 100.292 104.016 100.156C103.528 100.028 103.128 99.9 102.816 99.772C102.512 99.636 102.248 99.44 102.024 99.184C101.808 98.92 101.7 98.576 101.7 98.152C101.7 97.816 101.8 97.508 102 97.228C102.2 96.948 102.484 96.728 102.852 96.568C103.22 96.4 103.64 96.316 104.112 96.316C104.84 96.316 105.428 96.5 105.876 96.868C106.324 97.236 106.564 97.74 106.596 98.38H105.504C105.48 98.036 105.34 97.76 105.084 97.552C104.836 97.344 104.5 97.24 104.076 97.24C103.684 97.24 103.372 97.324 103.14 97.492C102.908 97.66 102.792 97.88 102.792 98.152C102.792 98.368 102.86 98.548 102.996 98.692C103.14 98.828 103.316 98.94 103.524 99.028C103.74 99.108 104.036 99.2 104.412 99.304C104.884 99.432 105.268 99.56 105.564 99.688C105.86 99.808 106.112 99.992 106.32 100.24C106.536 100.488 106.648 100.812 106.656 101.212C106.656 101.572 106.556 101.896 106.356 102.184C106.156 102.472 105.872 102.7 105.504 102.868C105.144 103.028 104.728 103.108 104.256 103.108ZM114.265 103.108C113.649 103.108 113.089 102.968 112.585 102.688C112.089 102.408 111.697 102.012 111.409 101.5C111.129 100.98 110.989 100.38 110.989 99.7C110.989 99.028 111.133 98.436 111.421 97.924C111.717 97.404 112.117 97.008 112.621 96.736C113.125 96.456 113.689 96.316 114.313 96.316C114.937 96.316 115.501 96.456 116.005 96.736C116.509 97.008 116.905 97.4 117.193 97.912C117.489 98.424 117.637 99.02 117.637 99.7C117.637 100.38 117.485 100.98 117.181 101.5C116.885 102.012 116.481 102.408 115.969 102.688C115.457 102.968 114.889 103.108 114.265 103.108ZM114.265 102.148C114.657 102.148 115.025 102.056 115.369 101.872C115.713 101.688 115.989 101.412 116.197 101.044C116.413 100.676 116.521 100.228 116.521 99.7C116.521 99.172 116.417 98.724 116.209 98.356C116.001 97.988 115.729 97.716 115.393 97.54C115.057 97.356 114.693 97.264 114.301 97.264C113.901 97.264 113.533 97.356 113.197 97.54C112.869 97.716 112.605 97.988 112.405 98.356C112.205 98.724 112.105 99.172 112.105 99.7C112.105 100.236 112.201 100.688 112.393 101.056C112.593 101.424 112.857 101.7 113.185 101.884C113.513 102.06 113.873 102.148 114.265 102.148ZM121.748 97.324H120.368V103H119.276V97.324H118.424V96.424H119.276V95.956C119.276 95.22 119.464 94.684 119.84 94.348C120.224 94.004 120.836 93.832 121.676 93.832V94.744C121.196 94.744 120.856 94.84 120.656 95.032C120.464 95.216 120.368 95.524 120.368 95.956V96.424H121.748V97.324ZM128.873 103.084C128.321 103.084 127.825 102.988 127.385 102.796C126.953 102.596 126.613 102.324 126.365 101.98C126.117 101.628 125.989 101.224 125.981 100.768H127.145C127.185 101.16 127.345 101.492 127.625 101.764C127.913 102.028 128.329 102.16 128.873 102.16C129.393 102.16 129.801 102.032 130.097 101.776C130.401 101.512 130.553 101.176 130.553 100.768C130.553 100.448 130.465 100.188 130.289 99.988C130.113 99.788 129.893 99.636 129.629 99.532C129.365 99.428 129.009 99.316 128.561 99.196C128.009 99.052 127.565 98.908 127.229 98.764C126.901 98.62 126.617 98.396 126.377 98.092C126.145 97.78 126.029 97.364 126.029 96.844C126.029 96.388 126.145 95.984 126.377 95.632C126.609 95.28 126.933 95.008 127.349 94.816C127.773 94.624 128.257 94.528 128.801 94.528C129.585 94.528 130.225 94.724 130.721 95.116C131.225 95.508 131.509 96.028 131.573 96.676H130.373C130.333 96.356 130.165 96.076 129.869 95.836C129.573 95.588 129.181 95.464 128.693 95.464C128.237 95.464 127.865 95.584 127.577 95.824C127.289 96.056 127.145 96.384 127.145 96.808C127.145 97.112 127.229 97.36 127.397 97.552C127.573 97.744 127.785 97.892 128.033 97.996C128.289 98.092 128.645 98.204 129.101 98.332C129.653 98.484 130.097 98.636 130.433 98.788C130.769 98.932 131.057 99.16 131.297 99.472C131.537 99.776 131.657 100.192 131.657 100.72C131.657 101.128 131.549 101.512 131.333 101.872C131.117 102.232 130.797 102.524 130.373 102.748C129.949 102.972 129.449 103.084 128.873 103.084ZM139.264 99.46C139.264 99.668 139.252 99.888 139.228 100.12H133.972C134.012 100.768 134.232 101.276 134.632 101.644C135.04 102.004 135.532 102.184 136.108 102.184C136.58 102.184 136.972 102.076 137.284 101.86C137.604 101.636 137.828 101.34 137.956 100.972H139.132C138.956 101.604 138.604 102.12 138.076 102.52C137.548 102.912 136.892 103.108 136.108 103.108C135.484 103.108 134.924 102.968 134.428 102.688C133.94 102.408 133.556 102.012 133.276 101.5C132.996 100.98 132.856 100.38 132.856 99.7C132.856 99.02 132.992 98.424 133.264 97.912C133.536 97.4 133.916 97.008 134.404 96.736C134.9 96.456 135.468 96.316 136.108 96.316C136.732 96.316 137.284 96.452 137.764 96.724C138.244 96.996 138.612 97.372 138.868 97.852C139.132 98.324 139.264 98.86 139.264 99.46ZM138.136 99.232C138.136 98.816 138.044 98.46 137.86 98.164C137.676 97.86 137.424 97.632 137.104 97.48C136.792 97.32 136.444 97.24 136.06 97.24C135.508 97.24 135.036 97.416 134.644 97.768C134.26 98.12 134.04 98.608 133.984 99.232H138.136ZM141.797 97.492C141.989 97.116 142.261 96.824 142.613 96.616C142.973 96.408 143.409 96.304 143.921 96.304V97.432H143.633C142.409 97.432 141.797 98.096 141.797 99.424V103H140.705V96.424H141.797V97.492ZM147.63 101.992L149.67 96.424H150.834L148.254 103H146.982L144.402 96.424H145.578L147.63 101.992ZM152.472 95.356C152.264 95.356 152.088 95.284 151.944 95.14C151.8 94.996 151.728 94.82 151.728 94.612C151.728 94.404 151.8 94.228 151.944 94.084C152.088 93.94 152.264 93.868 152.472 93.868C152.672 93.868 152.84 93.94 152.976 94.084C153.12 94.228 153.192 94.404 153.192 94.612C153.192 94.82 153.12 94.996 152.976 95.14C152.84 95.284 152.672 95.356 152.472 95.356ZM153 96.424V103H151.908V96.424H153ZM154.454 99.7C154.454 99.02 154.59 98.428 154.862 97.924C155.134 97.412 155.51 97.016 155.99 96.736C156.478 96.456 157.034 96.316 157.658 96.316C158.466 96.316 159.13 96.512 159.65 96.904C160.178 97.296 160.526 97.84 160.694 98.536H159.518C159.406 98.136 159.186 97.82 158.858 97.588C158.538 97.356 158.138 97.24 157.658 97.24C157.034 97.24 156.53 97.456 156.146 97.888C155.762 98.312 155.57 98.916 155.57 99.7C155.57 100.492 155.762 101.104 156.146 101.536C156.53 101.968 157.034 102.184 157.658 102.184C158.138 102.184 158.538 102.072 158.858 101.848C159.178 101.624 159.398 101.304 159.518 100.888H160.694C160.518 101.56 160.166 102.1 159.638 102.508C159.11 102.908 158.45 103.108 157.658 103.108C157.034 103.108 156.478 102.968 155.99 102.688C155.51 102.408 155.134 102.012 154.862 101.5C154.59 100.988 154.454 100.388 154.454 99.7ZM168.151 99.46C168.151 99.668 168.139 99.888 168.115 100.12H162.859C162.899 100.768 163.119 101.276 163.519 101.644C163.927 102.004 164.419 102.184 164.995 102.184C165.467 102.184 165.859 102.076 166.171 101.86C166.491 101.636 166.715 101.34 166.843 100.972H168.019C167.843 101.604 167.491 102.12 166.963 102.52C166.435 102.912 165.779 103.108 164.995 103.108C164.371 103.108 163.811 102.968 163.315 102.688C162.827 102.408 162.443 102.012 162.163 101.5C161.883 100.98 161.743 100.38 161.743 99.7C161.743 99.02 161.879 98.424 162.151 97.912C162.423 97.4 162.803 97.008 163.291 96.736C163.787 96.456 164.355 96.316 164.995 96.316C165.619 96.316 166.171 96.452 166.651 96.724C167.131 96.996 167.499 97.372 167.755 97.852C168.019 98.324 168.151 98.86 168.151 99.46ZM167.023 99.232C167.023 98.816 166.931 98.46 166.747 98.164C166.563 97.86 166.311 97.632 165.991 97.48C165.679 97.32 165.331 97.24 164.947 97.24C164.395 97.24 163.923 97.416 163.531 97.768C163.147 98.12 162.927 98.608 162.871 99.232H167.023Z" fill="#555555"/>
<circle cx="15" cy="63" r="15" fill="#FF6903"/>
<path d="M19.3636 57C19.7976 57 20.2138 57.1738 20.5207 57.4833C20.8276 57.7927 21 58.2124 21 58.65V59.75H19.9091V66.35C19.9091 66.7876 19.7367 67.2073 19.4298 67.5167C19.1229 67.8262 18.7067 68 18.2727 68H10.6364C10.2024 68 9.78616 67.8262 9.47928 67.5167C9.1724 67.2073 9 66.7876 9 66.35V65.25H17.7273V66.35C17.7273 66.4847 17.7763 66.6147 17.8651 66.7154C17.9539 66.8161 18.0762 66.8804 18.2089 66.8962L18.2727 66.9C18.4063 66.9 18.5353 66.8505 18.6351 66.761C18.7349 66.6715 18.7987 66.5481 18.8144 66.4144L18.8182 66.35V64.15H10.0909V58.65C10.0909 58.2124 10.2633 57.7927 10.5702 57.4833C10.8771 57.1738 11.2933 57 11.7273 57H19.3636Z" fill="white"/>
</svg>
