<svg width="30" height="30" viewBox="0 0 30 30" fill="none" xmlns="http://www.w3.org/2000/svg">
<circle cx="15" cy="15" r="15" fill="#FF6903"/>
<path d="M19.3636 9C19.7976 9 20.2138 9.17384 20.5207 9.48327C20.8276 9.79271 21 10.2124 21 10.65V11.75H19.9091V18.35C19.9091 18.7876 19.7367 19.2073 19.4298 19.5167C19.1229 19.8262 18.7067 20 18.2727 20H10.6364C10.2024 20 9.78616 19.8262 9.47928 19.5167C9.1724 19.2073 9 18.7876 9 18.35V17.25H17.7273V18.35C17.7273 18.4847 17.7763 18.6147 17.8651 18.7154C17.9539 18.8161 18.0762 18.8804 18.2089 18.8962L18.2727 18.9C18.4063 18.9 18.5353 18.8505 18.6351 18.761C18.7349 18.6715 18.7987 18.5481 18.8144 18.4144L18.8182 18.35V16.15H10.0909V10.65C10.0909 10.2124 10.2633 9.79271 10.5702 9.48327C10.8771 9.17384 11.2933 9 11.7273 9H19.3636Z" fill="white"/>
</svg>
