<svg width="50" height="50" viewBox="0 0 50 50" fill="none" xmlns="http://www.w3.org/2000/svg">
<circle cx="25" cy="25" r="25" fill="#FF6903"/>
<path d="M38 17.3724C37.0806 17.7733 36.093 18.0441 35.0547 18.1666C36.126 17.5358 36.9275 16.5429 37.3097 15.3733C36.3031 15.9616 35.2016 16.3757 34.0528 16.5977C33.2803 15.786 32.2571 15.248 31.142 15.0672C30.027 14.8864 28.8825 15.0729 27.8862 15.5978C26.8899 16.1228 26.0976 16.9567 25.6323 17.9701C25.167 18.9836 25.0547 20.1199 25.3128 21.2026C23.2734 21.1018 21.2782 20.5802 19.4569 19.6715C17.6356 18.7628 16.0288 17.4874 14.7407 15.928C14.3003 16.6757 14.0471 17.5425 14.0471 18.4656C14.0466 19.2967 14.2546 20.115 14.6525 20.848C15.0505 21.581 15.6261 22.2059 16.3284 22.6675C15.514 22.642 14.7175 22.4254 14.0052 22.0358V22.1008C14.0052 23.2664 14.4149 24.3961 15.1648 25.2982C15.9148 26.2004 16.9588 26.8194 18.1198 27.0503C17.3642 27.2515 16.5721 27.2811 15.8032 27.137C16.1308 28.1399 16.7688 29.0169 17.628 29.6452C18.4872 30.2735 19.5246 30.6217 20.5949 30.641C18.778 32.0446 16.5342 32.806 14.2243 32.8026C13.8152 32.8027 13.4064 32.7792 13 32.7322C15.3446 34.2157 18.0739 35.003 20.8614 35C30.2972 35 35.4555 27.3092 35.4555 20.6391C35.4555 20.4224 35.45 20.2036 35.4401 19.9869C36.4435 19.2728 37.3096 18.3886 37.9978 17.3756L38 17.3724Z" fill="white"/>
</svg>
