<svg width="30" height="30" viewBox="0 0 30 30" fill="none" xmlns="http://www.w3.org/2000/svg">
<circle cx="15" cy="15" r="15" fill="#FF6903"/>
<path d="M8.34594 14.7409L10.3446 15.6157L16.1044 12.4737L12.6305 16.5263L17.6098 18.7935C17.695 18.8308 17.7879 18.847 17.8806 18.8408C17.9734 18.8346 18.0633 18.8062 18.1427 18.7579C18.2222 18.7097 18.2888 18.643 18.3371 18.5635C18.3853 18.4841 18.4137 18.3941 18.4198 18.3014L18.9988 9.61724C19.0053 9.51673 18.9854 9.41627 18.9413 9.32575C18.8971 9.23522 18.8301 9.15776 18.7469 9.10098C18.6637 9.04419 18.5672 9.01005 18.4668 9.0019C18.3664 8.99375 18.2656 9.01189 18.1743 9.05451L8.33147 13.6861C8.23107 13.7337 8.14646 13.8091 8.0877 13.9035C8.02895 13.9978 7.99853 14.107 8.00005 14.2181C8.00158 14.3292 8.03499 14.4376 8.09631 14.5302C8.15762 14.6229 8.24427 14.696 8.34594 14.7409ZM11.4725 20L14.2378 18.6592L11.4725 17.3693V20Z" fill="white"/>
</svg>
