<svg width="266" height="60" viewBox="0 0 266 60" fill="none" xmlns="http://www.w3.org/2000/svg">
<path d="M45.576 25.084C45.024 25.084 44.528 24.988 44.088 24.796C43.656 24.596 43.316 24.324 43.068 23.98C42.82 23.628 42.692 23.224 42.684 22.768H43.848C43.888 23.16 44.048 23.492 44.328 23.764C44.616 24.028 45.032 24.16 45.576 24.16C46.096 24.16 46.504 24.032 46.8 23.776C47.104 23.512 47.256 23.176 47.256 22.768C47.256 22.448 47.168 22.188 46.992 21.988C46.816 21.788 46.596 21.636 46.332 21.532C46.068 21.428 45.712 21.316 45.264 21.196C44.712 21.052 44.268 20.908 43.932 20.764C43.604 20.62 43.32 20.396 43.08 20.092C42.848 19.78 42.732 19.364 42.732 18.844C42.732 18.388 42.848 17.984 43.08 17.632C43.312 17.28 43.636 17.008 44.052 16.816C44.476 16.624 44.96 16.528 45.504 16.528C46.288 16.528 46.928 16.724 47.424 17.116C47.928 17.508 48.212 18.028 48.276 18.676H47.076C47.036 18.356 46.868 18.076 46.572 17.836C46.276 17.588 45.884 17.464 45.396 17.464C44.94 17.464 44.568 17.584 44.28 17.824C43.992 18.056 43.848 18.384 43.848 18.808C43.848 19.112 43.932 19.36 44.1 19.552C44.276 19.744 44.488 19.892 44.736 19.996C44.992 20.092 45.348 20.204 45.804 20.332C46.356 20.484 46.8 20.636 47.136 20.788C47.472 20.932 47.76 21.16 48 21.472C48.24 21.776 48.36 22.192 48.36 22.72C48.36 23.128 48.252 23.512 48.036 23.872C47.82 24.232 47.5 24.524 47.076 24.748C46.652 24.972 46.152 25.084 45.576 25.084ZM55.967 21.46C55.967 21.668 55.955 21.888 55.931 22.12H50.675C50.715 22.768 50.935 23.276 51.335 23.644C51.743 24.004 52.235 24.184 52.811 24.184C53.283 24.184 53.675 24.076 53.987 23.86C54.307 23.636 54.531 23.34 54.659 22.972H55.835C55.659 23.604 55.307 24.12 54.779 24.52C54.251 24.912 53.595 25.108 52.811 25.108C52.187 25.108 51.627 24.968 51.131 24.688C50.643 24.408 50.259 24.012 49.979 23.5C49.699 22.98 49.559 22.38 49.559 21.7C49.559 21.02 49.695 20.424 49.967 19.912C50.239 19.4 50.619 19.008 51.107 18.736C51.603 18.456 52.171 18.316 52.811 18.316C53.435 18.316 53.987 18.452 54.467 18.724C54.947 18.996 55.315 19.372 55.571 19.852C55.835 20.324 55.967 20.86 55.967 21.46ZM54.839 21.232C54.839 20.816 54.747 20.46 54.563 20.164C54.379 19.86 54.127 19.632 53.807 19.48C53.495 19.32 53.147 19.24 52.763 19.24C52.211 19.24 51.739 19.416 51.347 19.768C50.963 20.12 50.743 20.608 50.687 21.232H54.839ZM60.6124 18.304C61.4124 18.304 62.0604 18.548 62.5564 19.036C63.0524 19.516 63.3004 20.212 63.3004 21.124V25H62.2204V21.28C62.2204 20.624 62.0564 20.124 61.7284 19.78C61.4004 19.428 60.9524 19.252 60.3844 19.252C59.8084 19.252 59.3484 19.432 59.0044 19.792C58.6684 20.152 58.5004 20.676 58.5004 21.364V25H57.4084V18.424H58.5004V19.36C58.7164 19.024 59.0084 18.764 59.3764 18.58C59.7524 18.396 60.1644 18.304 60.6124 18.304ZM64.6762 21.688C64.6762 21.016 64.8122 20.428 65.0842 19.924C65.3562 19.412 65.7282 19.016 66.2002 18.736C66.6802 18.456 67.2162 18.316 67.8082 18.316C68.3202 18.316 68.7962 18.436 69.2362 18.676C69.6762 18.908 70.0122 19.216 70.2442 19.6V16.12H71.3482V25H70.2442V23.764C70.0282 24.156 69.7082 24.48 69.2842 24.736C68.8602 24.984 68.3642 25.108 67.7962 25.108C67.2122 25.108 66.6802 24.964 66.2002 24.676C65.7282 24.388 65.3562 23.984 65.0842 23.464C64.8122 22.944 64.6762 22.352 64.6762 21.688ZM70.2442 21.7C70.2442 21.204 70.1442 20.772 69.9442 20.404C69.7442 20.036 69.4722 19.756 69.1282 19.564C68.7922 19.364 68.4202 19.264 68.0122 19.264C67.6042 19.264 67.2322 19.36 66.8962 19.552C66.5602 19.744 66.2922 20.024 66.0922 20.392C65.8922 20.76 65.7922 21.192 65.7922 21.688C65.7922 22.192 65.8922 22.632 66.0922 23.008C66.2922 23.376 66.5602 23.66 66.8962 23.86C67.2322 24.052 67.6042 24.148 68.0122 24.148C68.4202 24.148 68.7922 24.052 69.1282 23.86C69.4722 23.66 69.7442 23.376 69.9442 23.008C70.1442 22.632 70.2442 22.196 70.2442 21.7ZM77.4848 19.648C77.7088 19.256 78.0368 18.936 78.4688 18.688C78.9008 18.44 79.3928 18.316 79.9448 18.316C80.5368 18.316 81.0688 18.456 81.5408 18.736C82.0128 19.016 82.3848 19.412 82.6568 19.924C82.9288 20.428 83.0648 21.016 83.0648 21.688C83.0648 22.352 82.9288 22.944 82.6568 23.464C82.3848 23.984 82.0087 24.388 81.5287 24.676C81.0568 24.964 80.5288 25.108 79.9448 25.108C79.3768 25.108 78.8768 24.984 78.4448 24.736C78.0208 24.488 77.7008 24.172 77.4848 23.788V25H76.3928V16.12H77.4848V19.648ZM81.9488 21.688C81.9488 21.192 81.8488 20.76 81.6488 20.392C81.4488 20.024 81.1768 19.744 80.8328 19.552C80.4968 19.36 80.1248 19.264 79.7168 19.264C79.3168 19.264 78.9448 19.364 78.6008 19.564C78.2648 19.756 77.9928 20.04 77.7848 20.416C77.5848 20.784 77.4848 21.212 77.4848 21.7C77.4848 22.196 77.5848 22.632 77.7848 23.008C77.9928 23.376 78.2648 23.66 78.6008 23.86C78.9448 24.052 79.3168 24.148 79.7168 24.148C80.1248 24.148 80.4968 24.052 80.8328 23.86C81.1768 23.66 81.4488 23.376 81.6488 23.008C81.8488 22.632 81.9488 22.192 81.9488 21.688ZM90.3341 18.424V25H89.2421V24.028C89.0341 24.364 88.7421 24.628 88.3661 24.82C87.9981 25.004 87.5901 25.096 87.1421 25.096C86.6301 25.096 86.1701 24.992 85.7621 24.784C85.3541 24.568 85.0301 24.248 84.7901 23.824C84.5581 23.4 84.4421 22.884 84.4421 22.276V18.424H85.5221V22.132C85.5221 22.78 85.6861 23.28 86.0141 23.632C86.3421 23.976 86.7901 24.148 87.3581 24.148C87.9421 24.148 88.4021 23.968 88.7381 23.608C89.0741 23.248 89.2421 22.724 89.2421 22.036V18.424H90.3341ZM94.5059 25.108C94.0019 25.108 93.5499 25.024 93.1499 24.856C92.7499 24.68 92.4339 24.44 92.2019 24.136C91.9699 23.824 91.8419 23.468 91.8179 23.068H92.9459C92.9779 23.396 93.1299 23.664 93.4019 23.872C93.6819 24.08 94.0459 24.184 94.4939 24.184C94.9099 24.184 95.2379 24.092 95.4779 23.908C95.7179 23.724 95.8379 23.492 95.8379 23.212C95.8379 22.924 95.7099 22.712 95.4539 22.576C95.1979 22.432 94.8019 22.292 94.2659 22.156C93.7779 22.028 93.3779 21.9 93.0659 21.772C92.7619 21.636 92.4979 21.44 92.2739 21.184C92.0579 20.92 91.9499 20.576 91.9499 20.152C91.9499 19.816 92.0499 19.508 92.2499 19.228C92.4499 18.948 92.7339 18.728 93.1019 18.568C93.4699 18.4 93.8899 18.316 94.3619 18.316C95.0899 18.316 95.6779 18.5 96.1259 18.868C96.5739 19.236 96.8139 19.74 96.8459 20.38H95.7539C95.7299 20.036 95.5899 19.76 95.3339 19.552C95.0859 19.344 94.7499 19.24 94.3259 19.24C93.9339 19.24 93.6219 19.324 93.3899 19.492C93.1579 19.66 93.0419 19.88 93.0419 20.152C93.0419 20.368 93.1099 20.548 93.2459 20.692C93.3899 20.828 93.5659 20.94 93.7739 21.028C93.9899 21.108 94.2859 21.2 94.6619 21.304C95.1339 21.432 95.5179 21.56 95.8139 21.688C96.1099 21.808 96.3619 21.992 96.5699 22.24C96.7859 22.488 96.8979 22.812 96.9059 23.212C96.9059 23.572 96.8059 23.896 96.6059 24.184C96.4059 24.472 96.1219 24.7 95.7539 24.868C95.3939 25.028 94.9779 25.108 94.5059 25.108ZM99.0114 17.356C98.8034 17.356 98.6274 17.284 98.4834 17.14C98.3394 16.996 98.2674 16.82 98.2674 16.612C98.2674 16.404 98.3394 16.228 98.4834 16.084C98.6274 15.94 98.8034 15.868 99.0114 15.868C99.2114 15.868 99.3794 15.94 99.5154 16.084C99.6594 16.228 99.7314 16.404 99.7314 16.612C99.7314 16.82 99.6594 16.996 99.5154 17.14C99.3794 17.284 99.2114 17.356 99.0114 17.356ZM99.5394 18.424V25H98.4474V18.424H99.5394ZM104.605 18.304C105.405 18.304 106.053 18.548 106.549 19.036C107.045 19.516 107.293 20.212 107.293 21.124V25H106.213V21.28C106.213 20.624 106.049 20.124 105.721 19.78C105.393 19.428 104.945 19.252 104.377 19.252C103.801 19.252 103.341 19.432 102.997 19.792C102.661 20.152 102.493 20.676 102.493 21.364V25H101.401V18.424H102.493V19.36C102.709 19.024 103.001 18.764 103.369 18.58C103.745 18.396 104.157 18.304 104.605 18.304ZM115.076 21.46C115.076 21.668 115.064 21.888 115.04 22.12H109.784C109.824 22.768 110.044 23.276 110.444 23.644C110.852 24.004 111.344 24.184 111.92 24.184C112.392 24.184 112.784 24.076 113.096 23.86C113.416 23.636 113.64 23.34 113.768 22.972H114.944C114.768 23.604 114.416 24.12 113.888 24.52C113.36 24.912 112.704 25.108 111.92 25.108C111.296 25.108 110.736 24.968 110.24 24.688C109.752 24.408 109.368 24.012 109.088 23.5C108.808 22.98 108.668 22.38 108.668 21.7C108.668 21.02 108.804 20.424 109.076 19.912C109.348 19.4 109.728 19.008 110.216 18.736C110.712 18.456 111.28 18.316 111.92 18.316C112.544 18.316 113.096 18.452 113.576 18.724C114.056 18.996 114.424 19.372 114.68 19.852C114.944 20.324 115.076 20.86 115.076 21.46ZM113.948 21.232C113.948 20.816 113.856 20.46 113.672 20.164C113.488 19.86 113.236 19.632 112.916 19.48C112.604 19.32 112.256 19.24 111.872 19.24C111.32 19.24 110.848 19.416 110.456 19.768C110.072 20.12 109.852 20.608 109.796 21.232H113.948ZM118.846 25.108C118.342 25.108 117.89 25.024 117.49 24.856C117.09 24.68 116.774 24.44 116.542 24.136C116.31 23.824 116.182 23.468 116.158 23.068H117.286C117.318 23.396 117.47 23.664 117.742 23.872C118.022 24.08 118.386 24.184 118.834 24.184C119.25 24.184 119.578 24.092 119.818 23.908C120.058 23.724 120.178 23.492 120.178 23.212C120.178 22.924 120.05 22.712 119.794 22.576C119.538 22.432 119.142 22.292 118.606 22.156C118.118 22.028 117.718 21.9 117.406 21.772C117.102 21.636 116.838 21.44 116.614 21.184C116.398 20.92 116.29 20.576 116.29 20.152C116.29 19.816 116.39 19.508 116.59 19.228C116.79 18.948 117.074 18.728 117.442 18.568C117.81 18.4 118.23 18.316 118.702 18.316C119.43 18.316 120.018 18.5 120.466 18.868C120.914 19.236 121.154 19.74 121.186 20.38H120.094C120.07 20.036 119.93 19.76 119.674 19.552C119.426 19.344 119.09 19.24 118.666 19.24C118.274 19.24 117.962 19.324 117.73 19.492C117.498 19.66 117.382 19.88 117.382 20.152C117.382 20.368 117.45 20.548 117.586 20.692C117.73 20.828 117.906 20.94 118.114 21.028C118.33 21.108 118.626 21.2 119.002 21.304C119.474 21.432 119.858 21.56 120.154 21.688C120.45 21.808 120.702 21.992 120.91 22.24C121.126 22.488 121.238 22.812 121.246 23.212C121.246 23.572 121.146 23.896 120.946 24.184C120.746 24.472 120.462 24.7 120.094 24.868C119.734 25.028 119.318 25.108 118.846 25.108ZM125.115 25.108C124.611 25.108 124.159 25.024 123.759 24.856C123.359 24.68 123.043 24.44 122.811 24.136C122.579 23.824 122.451 23.468 122.427 23.068H123.555C123.587 23.396 123.739 23.664 124.011 23.872C124.291 24.08 124.655 24.184 125.103 24.184C125.519 24.184 125.847 24.092 126.087 23.908C126.327 23.724 126.447 23.492 126.447 23.212C126.447 22.924 126.319 22.712 126.063 22.576C125.807 22.432 125.411 22.292 124.875 22.156C124.387 22.028 123.987 21.9 123.675 21.772C123.371 21.636 123.107 21.44 122.883 21.184C122.667 20.92 122.559 20.576 122.559 20.152C122.559 19.816 122.659 19.508 122.859 19.228C123.059 18.948 123.343 18.728 123.711 18.568C124.079 18.4 124.499 18.316 124.971 18.316C125.699 18.316 126.287 18.5 126.735 18.868C127.183 19.236 127.423 19.74 127.455 20.38H126.363C126.339 20.036 126.199 19.76 125.943 19.552C125.695 19.344 125.359 19.24 124.935 19.24C124.543 19.24 124.231 19.324 123.999 19.492C123.767 19.66 123.651 19.88 123.651 20.152C123.651 20.368 123.719 20.548 123.855 20.692C123.999 20.828 124.175 20.94 124.383 21.028C124.599 21.108 124.895 21.2 125.271 21.304C125.743 21.432 126.127 21.56 126.423 21.688C126.719 21.808 126.971 21.992 127.179 22.24C127.395 22.488 127.507 22.812 127.515 23.212C127.515 23.572 127.415 23.896 127.215 24.184C127.015 24.472 126.731 24.7 126.363 24.868C126.003 25.028 125.587 25.108 125.115 25.108ZM133.348 19.492C133.54 19.116 133.812 18.824 134.164 18.616C134.524 18.408 134.96 18.304 135.472 18.304V19.432H135.184C133.96 19.432 133.348 20.096 133.348 21.424V25H132.256V18.424H133.348V19.492ZM142.733 21.46C142.733 21.668 142.721 21.888 142.697 22.12H137.441C137.481 22.768 137.701 23.276 138.101 23.644C138.509 24.004 139.001 24.184 139.577 24.184C140.049 24.184 140.441 24.076 140.753 23.86C141.073 23.636 141.297 23.34 141.425 22.972H142.601C142.425 23.604 142.073 24.12 141.545 24.52C141.017 24.912 140.361 25.108 139.577 25.108C138.953 25.108 138.393 24.968 137.897 24.688C137.409 24.408 137.025 24.012 136.745 23.5C136.465 22.98 136.325 22.38 136.325 21.7C136.325 21.02 136.461 20.424 136.733 19.912C137.005 19.4 137.385 19.008 137.873 18.736C138.369 18.456 138.937 18.316 139.577 18.316C140.201 18.316 140.753 18.452 141.233 18.724C141.713 18.996 142.081 19.372 142.337 19.852C142.601 20.324 142.733 20.86 142.733 21.46ZM141.605 21.232C141.605 20.816 141.513 20.46 141.329 20.164C141.145 19.86 140.893 19.632 140.573 19.48C140.261 19.32 139.913 19.24 139.529 19.24C138.977 19.24 138.505 19.416 138.113 19.768C137.729 20.12 137.509 20.608 137.453 21.232H141.605ZM143.766 21.688C143.766 21.016 143.902 20.428 144.174 19.924C144.446 19.412 144.818 19.016 145.29 18.736C145.77 18.456 146.306 18.316 146.898 18.316C147.466 18.316 147.962 18.444 148.386 18.7C148.818 18.948 149.134 19.256 149.334 19.624V18.424H150.438V28.12H149.334V23.788C149.126 24.156 148.806 24.468 148.374 24.724C147.942 24.98 147.438 25.108 146.862 25.108C146.286 25.108 145.762 24.964 145.29 24.676C144.818 24.388 144.446 23.984 144.174 23.464C143.902 22.944 143.766 22.352 143.766 21.688ZM149.334 21.7C149.334 21.204 149.234 20.772 149.034 20.404C148.834 20.036 148.562 19.756 148.218 19.564C147.882 19.364 147.51 19.264 147.102 19.264C146.694 19.264 146.322 19.36 145.986 19.552C145.65 19.744 145.382 20.024 145.182 20.392C144.982 20.76 144.882 21.192 144.882 21.688C144.882 22.192 144.982 22.632 145.182 23.008C145.382 23.376 145.65 23.66 145.986 23.86C146.322 24.052 146.694 24.148 147.102 24.148C147.51 24.148 147.882 24.052 148.218 23.86C148.562 23.66 148.834 23.376 149.034 23.008C149.234 22.632 149.334 22.196 149.334 21.7ZM158.115 18.424V25H157.023V24.028C156.815 24.364 156.523 24.628 156.147 24.82C155.779 25.004 155.371 25.096 154.923 25.096C154.411 25.096 153.951 24.992 153.543 24.784C153.135 24.568 152.811 24.248 152.571 23.824C152.339 23.4 152.223 22.884 152.223 22.276V18.424H153.303V22.132C153.303 22.78 153.467 23.28 153.795 23.632C154.123 23.976 154.571 24.148 155.139 24.148C155.723 24.148 156.183 23.968 156.519 23.608C156.855 23.248 157.023 22.724 157.023 22.036V18.424H158.115ZM160.523 17.356C160.315 17.356 160.139 17.284 159.995 17.14C159.851 16.996 159.779 16.82 159.779 16.612C159.779 16.404 159.851 16.228 159.995 16.084C160.139 15.94 160.315 15.868 160.523 15.868C160.723 15.868 160.891 15.94 161.027 16.084C161.171 16.228 161.243 16.404 161.243 16.612C161.243 16.82 161.171 16.996 161.027 17.14C160.891 17.284 160.723 17.356 160.523 17.356ZM161.051 18.424V25H159.959V18.424H161.051ZM164.004 19.492C164.196 19.116 164.468 18.824 164.82 18.616C165.18 18.408 165.616 18.304 166.128 18.304V19.432H165.84C164.616 19.432 164.004 20.096 164.004 21.424V25H162.912V18.424H164.004V19.492ZM173.389 21.46C173.389 21.668 173.377 21.888 173.353 22.12H168.097C168.137 22.768 168.357 23.276 168.757 23.644C169.165 24.004 169.657 24.184 170.233 24.184C170.705 24.184 171.097 24.076 171.409 23.86C171.729 23.636 171.953 23.34 172.081 22.972H173.257C173.081 23.604 172.729 24.12 172.201 24.52C171.673 24.912 171.017 25.108 170.233 25.108C169.609 25.108 169.049 24.968 168.553 24.688C168.065 24.408 167.681 24.012 167.401 23.5C167.121 22.98 166.981 22.38 166.981 21.7C166.981 21.02 167.117 20.424 167.389 19.912C167.661 19.4 168.041 19.008 168.529 18.736C169.025 18.456 169.593 18.316 170.233 18.316C170.857 18.316 171.409 18.452 171.889 18.724C172.369 18.996 172.737 19.372 172.993 19.852C173.257 20.324 173.389 20.86 173.389 21.46ZM172.261 21.232C172.261 20.816 172.169 20.46 171.985 20.164C171.801 19.86 171.549 19.632 171.229 19.48C170.917 19.32 170.569 19.24 170.185 19.24C169.633 19.24 169.161 19.416 168.769 19.768C168.385 20.12 168.165 20.608 168.109 21.232H172.261ZM177.621 21.688C177.621 21.016 177.757 20.428 178.029 19.924C178.301 19.412 178.673 19.016 179.145 18.736C179.625 18.456 180.161 18.316 180.753 18.316C181.265 18.316 181.741 18.436 182.181 18.676C182.621 18.908 182.957 19.216 183.189 19.6V16.12H184.293V25H183.189V23.764C182.973 24.156 182.653 24.48 182.229 24.736C181.805 24.984 181.309 25.108 180.741 25.108C180.157 25.108 179.625 24.964 179.145 24.676C178.673 24.388 178.301 23.984 178.029 23.464C177.757 22.944 177.621 22.352 177.621 21.688ZM183.189 21.7C183.189 21.204 183.089 20.772 182.889 20.404C182.689 20.036 182.417 19.756 182.073 19.564C181.737 19.364 181.365 19.264 180.957 19.264C180.549 19.264 180.177 19.36 179.841 19.552C179.505 19.744 179.237 20.024 179.037 20.392C178.837 20.76 178.737 21.192 178.737 21.688C178.737 22.192 178.837 22.632 179.037 23.008C179.237 23.376 179.505 23.66 179.841 23.86C180.177 24.052 180.549 24.148 180.957 24.148C181.365 24.148 181.737 24.052 182.073 23.86C182.417 23.66 182.689 23.376 182.889 23.008C183.089 22.632 183.189 22.196 183.189 21.7ZM189.007 25.108C188.391 25.108 187.831 24.968 187.327 24.688C186.831 24.408 186.439 24.012 186.151 23.5C185.871 22.98 185.731 22.38 185.731 21.7C185.731 21.028 185.875 20.436 186.163 19.924C186.459 19.404 186.859 19.008 187.363 18.736C187.867 18.456 188.431 18.316 189.055 18.316C189.679 18.316 190.243 18.456 190.747 18.736C191.251 19.008 191.647 19.4 191.935 19.912C192.231 20.424 192.379 21.02 192.379 21.7C192.379 22.38 192.227 22.98 191.923 23.5C191.627 24.012 191.223 24.408 190.711 24.688C190.199 24.968 189.631 25.108 189.007 25.108ZM189.007 24.148C189.399 24.148 189.767 24.056 190.111 23.872C190.455 23.688 190.731 23.412 190.939 23.044C191.155 22.676 191.263 22.228 191.263 21.7C191.263 21.172 191.159 20.724 190.951 20.356C190.743 19.988 190.471 19.716 190.135 19.54C189.799 19.356 189.435 19.264 189.043 19.264C188.643 19.264 188.275 19.356 187.939 19.54C187.611 19.716 187.347 19.988 187.147 20.356C186.947 20.724 186.847 21.172 186.847 21.7C186.847 22.236 186.943 22.688 187.135 23.056C187.335 23.424 187.599 23.7 187.927 23.884C188.255 24.06 188.615 24.148 189.007 24.148ZM193.407 21.7C193.407 21.02 193.543 20.428 193.815 19.924C194.087 19.412 194.463 19.016 194.943 18.736C195.431 18.456 195.987 18.316 196.611 18.316C197.419 18.316 198.083 18.512 198.603 18.904C199.131 19.296 199.479 19.84 199.647 20.536H198.471C198.359 20.136 198.139 19.82 197.811 19.588C197.491 19.356 197.091 19.24 196.611 19.24C195.987 19.24 195.483 19.456 195.099 19.888C194.715 20.312 194.523 20.916 194.523 21.7C194.523 22.492 194.715 23.104 195.099 23.536C195.483 23.968 195.987 24.184 196.611 24.184C197.091 24.184 197.491 24.072 197.811 23.848C198.131 23.624 198.351 23.304 198.471 22.888H199.647C199.471 23.56 199.119 24.1 198.591 24.508C198.063 24.908 197.403 25.108 196.611 25.108C195.987 25.108 195.431 24.968 194.943 24.688C194.463 24.408 194.087 24.012 193.815 23.5C193.543 22.988 193.407 22.388 193.407 21.7ZM206.936 18.424V25H205.844V24.028C205.636 24.364 205.344 24.628 204.968 24.82C204.6 25.004 204.192 25.096 203.744 25.096C203.232 25.096 202.772 24.992 202.364 24.784C201.956 24.568 201.632 24.248 201.392 23.824C201.16 23.4 201.044 22.884 201.044 22.276V18.424H202.124V22.132C202.124 22.78 202.288 23.28 202.616 23.632C202.944 23.976 203.392 24.148 203.96 24.148C204.544 24.148 205.004 23.968 205.34 23.608C205.676 23.248 205.844 22.724 205.844 22.036V18.424H206.936ZM216.687 18.304C217.199 18.304 217.655 18.412 218.055 18.628C218.455 18.836 218.771 19.152 219.003 19.576C219.235 20 219.351 20.516 219.351 21.124V25H218.271V21.28C218.271 20.624 218.107 20.124 217.779 19.78C217.459 19.428 217.023 19.252 216.471 19.252C215.903 19.252 215.451 19.436 215.115 19.804C214.779 20.164 214.611 20.688 214.611 21.376V25H213.531V21.28C213.531 20.624 213.367 20.124 213.039 19.78C212.719 19.428 212.283 19.252 211.731 19.252C211.163 19.252 210.711 19.436 210.375 19.804C210.039 20.164 209.871 20.688 209.871 21.376V25H208.779V18.424H209.871V19.372C210.087 19.028 210.375 18.764 210.735 18.58C211.103 18.396 211.507 18.304 211.947 18.304C212.499 18.304 212.987 18.428 213.411 18.676C213.835 18.924 214.151 19.288 214.359 19.768C214.543 19.304 214.847 18.944 215.271 18.688C215.695 18.432 216.167 18.304 216.687 18.304ZM227.143 21.46C227.143 21.668 227.131 21.888 227.107 22.12H221.851C221.891 22.768 222.111 23.276 222.511 23.644C222.919 24.004 223.411 24.184 223.987 24.184C224.459 24.184 224.851 24.076 225.163 23.86C225.483 23.636 225.707 23.34 225.835 22.972H227.011C226.835 23.604 226.483 24.12 225.955 24.52C225.427 24.912 224.771 25.108 223.987 25.108C223.363 25.108 222.803 24.968 222.307 24.688C221.819 24.408 221.435 24.012 221.155 23.5C220.875 22.98 220.735 22.38 220.735 21.7C220.735 21.02 220.871 20.424 221.143 19.912C221.415 19.4 221.795 19.008 222.283 18.736C222.779 18.456 223.347 18.316 223.987 18.316C224.611 18.316 225.163 18.452 225.643 18.724C226.123 18.996 226.491 19.372 226.747 19.852C227.011 20.324 227.143 20.86 227.143 21.46ZM226.015 21.232C226.015 20.816 225.923 20.46 225.739 20.164C225.555 19.86 225.303 19.632 224.983 19.48C224.671 19.32 224.323 19.24 223.939 19.24C223.387 19.24 222.915 19.416 222.523 19.768C222.139 20.12 221.919 20.608 221.863 21.232H226.015ZM231.788 18.304C232.588 18.304 233.236 18.548 233.732 19.036C234.228 19.516 234.476 20.212 234.476 21.124V25H233.396V21.28C233.396 20.624 233.232 20.124 232.904 19.78C232.576 19.428 232.128 19.252 231.56 19.252C230.984 19.252 230.524 19.432 230.18 19.792C229.844 20.152 229.676 20.676 229.676 21.364V25H228.584V18.424H229.676V19.36C229.892 19.024 230.184 18.764 230.552 18.58C230.928 18.396 231.34 18.304 231.788 18.304ZM237.592 19.324V23.2C237.592 23.52 237.66 23.748 237.796 23.884C237.932 24.012 238.168 24.076 238.504 24.076H239.308V25H238.324C237.716 25 237.26 24.86 236.956 24.58C236.652 24.3 236.5 23.84 236.5 23.2V19.324H235.648V18.424H236.5V16.768H237.592V18.424H239.308V19.324H237.592Z" fill="#555555"/>
<path d="M42.612 42.124C43.628 41.308 44.424 40.64 45 40.12C45.576 39.592 46.06 39.044 46.452 38.476C46.852 37.9 47.052 37.336 47.052 36.784C47.052 36.264 46.924 35.856 46.668 35.56C46.42 35.256 46.016 35.104 45.456 35.104C44.912 35.104 44.488 35.276 44.184 35.62C43.888 35.956 43.728 36.408 43.704 36.976H42.648C42.68 36.08 42.952 35.388 43.464 34.9C43.976 34.412 44.636 34.168 45.444 34.168C46.268 34.168 46.92 34.396 47.4 34.852C47.888 35.308 48.132 35.936 48.132 36.736C48.132 37.4 47.932 38.048 47.532 38.68C47.14 39.304 46.692 39.856 46.188 40.336C45.684 40.808 45.04 41.36 44.256 41.992H48.384V42.904H42.612V42.124ZM52.6176 39.688C52.6176 39.016 52.7536 38.428 53.0256 37.924C53.2976 37.412 53.6696 37.016 54.1416 36.736C54.6216 36.456 55.1576 36.316 55.7496 36.316C56.2616 36.316 56.7376 36.436 57.1776 36.676C57.6176 36.908 57.9536 37.216 58.1856 37.6V34.12H59.2896V43H58.1856V41.764C57.9696 42.156 57.6496 42.48 57.2256 42.736C56.8016 42.984 56.3056 43.108 55.7376 43.108C55.1536 43.108 54.6216 42.964 54.1416 42.676C53.6696 42.388 53.2976 41.984 53.0256 41.464C52.7536 40.944 52.6176 40.352 52.6176 39.688ZM58.1856 39.7C58.1856 39.204 58.0856 38.772 57.8856 38.404C57.6856 38.036 57.4136 37.756 57.0696 37.564C56.7336 37.364 56.3616 37.264 55.9536 37.264C55.5456 37.264 55.1736 37.36 54.8376 37.552C54.5016 37.744 54.2336 38.024 54.0336 38.392C53.8336 38.76 53.7336 39.192 53.7336 39.688C53.7336 40.192 53.8336 40.632 54.0336 41.008C54.2336 41.376 54.5016 41.66 54.8376 41.86C55.1736 42.052 55.5456 42.148 55.9536 42.148C56.3616 42.148 56.7336 42.052 57.0696 41.86C57.4136 41.66 57.6856 41.376 57.8856 41.008C58.0856 40.632 58.1856 40.196 58.1856 39.7ZM60.7269 39.688C60.7269 39.016 60.8629 38.428 61.1349 37.924C61.4069 37.412 61.7789 37.016 62.2509 36.736C62.7309 36.456 63.2629 36.316 63.8469 36.316C64.4229 36.316 64.9229 36.44 65.3469 36.688C65.7709 36.936 66.0869 37.248 66.2949 37.624V36.424H67.3989V43H66.2949V41.776C66.0789 42.16 65.7549 42.48 65.3229 42.736C64.8989 42.984 64.4029 43.108 63.8349 43.108C63.2509 43.108 62.7229 42.964 62.2509 42.676C61.7789 42.388 61.4069 41.984 61.1349 41.464C60.8629 40.944 60.7269 40.352 60.7269 39.688ZM66.2949 39.7C66.2949 39.204 66.1949 38.772 65.9949 38.404C65.7949 38.036 65.5229 37.756 65.1789 37.564C64.8429 37.364 64.4709 37.264 64.0629 37.264C63.6549 37.264 63.2829 37.36 62.9469 37.552C62.6109 37.744 62.3429 38.024 62.1429 38.392C61.9429 38.76 61.8429 39.192 61.8429 39.688C61.8429 40.192 61.9429 40.632 62.1429 41.008C62.3429 41.376 62.6109 41.66 62.9469 41.86C63.2829 42.052 63.6549 42.148 64.0629 42.148C64.4709 42.148 64.8429 42.052 65.1789 41.86C65.5229 41.66 65.7949 41.376 65.9949 41.008C66.1949 40.632 66.2949 40.196 66.2949 39.7ZM74.9083 36.424L70.9483 46.096H69.8203L71.1163 42.928L68.4643 36.424H69.6763L71.7403 41.752L73.7803 36.424H74.9083ZM78.7973 39.688C78.7973 39.016 78.9333 38.428 79.2053 37.924C79.4773 37.412 79.8493 37.016 80.3213 36.736C80.8013 36.456 81.3333 36.316 81.9173 36.316C82.4933 36.316 82.9933 36.44 83.4173 36.688C83.8413 36.936 84.1573 37.248 84.3653 37.624V36.424H85.4693V43H84.3653V41.776C84.1493 42.16 83.8253 42.48 83.3933 42.736C82.9693 42.984 82.4733 43.108 81.9053 43.108C81.3213 43.108 80.7933 42.964 80.3213 42.676C79.8493 42.388 79.4773 41.984 79.2053 41.464C78.9333 40.944 78.7973 40.352 78.7973 39.688ZM84.3653 39.7C84.3653 39.204 84.2653 38.772 84.0653 38.404C83.8653 38.036 83.5933 37.756 83.2493 37.564C82.9133 37.364 82.5413 37.264 82.1333 37.264C81.7253 37.264 81.3533 37.36 81.0173 37.552C80.6813 37.744 80.4133 38.024 80.2133 38.392C80.0133 38.76 79.9133 39.192 79.9133 39.688C79.9133 40.192 80.0133 40.632 80.2133 41.008C80.4133 41.376 80.6813 41.66 81.0173 41.86C81.3533 42.052 81.7253 42.148 82.1333 42.148C82.5413 42.148 82.9133 42.052 83.2493 41.86C83.5933 41.66 83.8653 41.376 84.0653 41.008C84.2653 40.632 84.3653 40.196 84.3653 39.7ZM89.9906 37.324H88.6106V43H87.5186V37.324H86.6666V36.424H87.5186V35.956C87.5186 35.22 87.7066 34.684 88.0826 34.348C88.4666 34.004 89.0786 33.832 89.9186 33.832V34.744C89.4386 34.744 89.0986 34.84 88.8986 35.032C88.7066 35.216 88.6106 35.524 88.6106 35.956V36.424H89.9906V37.324ZM92.5958 37.324V41.2C92.5958 41.52 92.6638 41.748 92.7998 41.884C92.9358 42.012 93.1718 42.076 93.5078 42.076H94.3118V43H93.3278C92.7198 43 92.2638 42.86 91.9598 42.58C91.6558 42.3 91.5038 41.84 91.5038 41.2V37.324H90.6518V36.424H91.5038V34.768H92.5958V36.424H94.3118V37.324H92.5958ZM101.635 39.46C101.635 39.668 101.623 39.888 101.599 40.12H96.3429C96.3829 40.768 96.6029 41.276 97.0029 41.644C97.4109 42.004 97.9029 42.184 98.4789 42.184C98.9509 42.184 99.3429 42.076 99.6549 41.86C99.9749 41.636 100.199 41.34 100.327 40.972H101.503C101.327 41.604 100.975 42.12 100.447 42.52C99.9189 42.912 99.2629 43.108 98.4789 43.108C97.8549 43.108 97.2949 42.968 96.7989 42.688C96.3109 42.408 95.9269 42.012 95.6469 41.5C95.3669 40.98 95.2269 40.38 95.2269 39.7C95.2269 39.02 95.3629 38.424 95.6349 37.912C95.9069 37.4 96.2869 37.008 96.7749 36.736C97.2709 36.456 97.8389 36.316 98.4789 36.316C99.1029 36.316 99.6549 36.452 100.135 36.724C100.615 36.996 100.983 37.372 101.239 37.852C101.503 38.324 101.635 38.86 101.635 39.46ZM100.507 39.232C100.507 38.816 100.415 38.46 100.231 38.164C100.047 37.86 99.7949 37.632 99.4749 37.48C99.1629 37.32 98.8149 37.24 98.4309 37.24C97.8789 37.24 97.4069 37.416 97.0149 37.768C96.6309 38.12 96.4109 38.608 96.3549 39.232H100.507ZM104.168 37.492C104.36 37.116 104.632 36.824 104.984 36.616C105.344 36.408 105.78 36.304 106.292 36.304V37.432H106.004C104.78 37.432 104.168 38.096 104.168 39.424V43H103.076V36.424H104.168V37.492ZM111.316 35.356C111.108 35.356 110.932 35.284 110.788 35.14C110.644 34.996 110.572 34.82 110.572 34.612C110.572 34.404 110.644 34.228 110.788 34.084C110.932 33.94 111.108 33.868 111.316 33.868C111.516 33.868 111.684 33.94 111.82 34.084C111.964 34.228 112.036 34.404 112.036 34.612C112.036 34.82 111.964 34.996 111.82 35.14C111.684 35.284 111.516 35.356 111.316 35.356ZM111.844 36.424V43H110.752V36.424H111.844ZM116.909 36.304C117.709 36.304 118.357 36.548 118.853 37.036C119.349 37.516 119.597 38.212 119.597 39.124V43H118.517V39.28C118.517 38.624 118.353 38.124 118.025 37.78C117.697 37.428 117.249 37.252 116.681 37.252C116.105 37.252 115.645 37.432 115.301 37.792C114.965 38.152 114.797 38.676 114.797 39.364V43H113.705V36.424H114.797V37.36C115.013 37.024 115.305 36.764 115.673 36.58C116.049 36.396 116.461 36.304 116.909 36.304ZM123.829 41.992L125.869 36.424H127.033L124.453 43H123.181L120.601 36.424H121.777L123.829 41.992ZM130.976 43.108C130.36 43.108 129.8 42.968 129.296 42.688C128.8 42.408 128.408 42.012 128.12 41.5C127.84 40.98 127.7 40.38 127.7 39.7C127.7 39.028 127.844 38.436 128.132 37.924C128.428 37.404 128.828 37.008 129.332 36.736C129.836 36.456 130.4 36.316 131.024 36.316C131.648 36.316 132.212 36.456 132.716 36.736C133.22 37.008 133.616 37.4 133.904 37.912C134.2 38.424 134.348 39.02 134.348 39.7C134.348 40.38 134.196 40.98 133.892 41.5C133.596 42.012 133.192 42.408 132.68 42.688C132.168 42.968 131.6 43.108 130.976 43.108ZM130.976 42.148C131.368 42.148 131.736 42.056 132.08 41.872C132.424 41.688 132.7 41.412 132.908 41.044C133.124 40.676 133.232 40.228 133.232 39.7C133.232 39.172 133.128 38.724 132.92 38.356C132.712 37.988 132.44 37.716 132.104 37.54C131.768 37.356 131.404 37.264 131.012 37.264C130.612 37.264 130.244 37.356 129.908 37.54C129.58 37.716 129.316 37.988 129.116 38.356C128.916 38.724 128.816 39.172 128.816 39.7C128.816 40.236 128.912 40.688 129.104 41.056C129.304 41.424 129.568 41.7 129.896 41.884C130.224 42.06 130.584 42.148 130.976 42.148ZM135.375 39.7C135.375 39.02 135.511 38.428 135.783 37.924C136.055 37.412 136.431 37.016 136.911 36.736C137.399 36.456 137.955 36.316 138.579 36.316C139.387 36.316 140.051 36.512 140.571 36.904C141.099 37.296 141.447 37.84 141.615 38.536H140.439C140.327 38.136 140.107 37.82 139.779 37.588C139.459 37.356 139.059 37.24 138.579 37.24C137.955 37.24 137.451 37.456 137.067 37.888C136.683 38.312 136.491 38.916 136.491 39.7C136.491 40.492 136.683 41.104 137.067 41.536C137.451 41.968 137.955 42.184 138.579 42.184C139.059 42.184 139.459 42.072 139.779 41.848C140.099 41.624 140.319 41.304 140.439 40.888H141.615C141.439 41.56 141.087 42.1 140.559 42.508C140.031 42.908 139.371 43.108 138.579 43.108C137.955 43.108 137.399 42.968 136.911 42.688C136.431 42.408 136.055 42.012 135.783 41.5C135.511 40.988 135.375 40.388 135.375 39.7ZM149.072 39.46C149.072 39.668 149.06 39.888 149.036 40.12H143.78C143.82 40.768 144.04 41.276 144.44 41.644C144.848 42.004 145.34 42.184 145.916 42.184C146.388 42.184 146.78 42.076 147.092 41.86C147.412 41.636 147.636 41.34 147.764 40.972H148.94C148.764 41.604 148.412 42.12 147.884 42.52C147.356 42.912 146.7 43.108 145.916 43.108C145.292 43.108 144.732 42.968 144.236 42.688C143.748 42.408 143.364 42.012 143.084 41.5C142.804 40.98 142.664 40.38 142.664 39.7C142.664 39.02 142.8 38.424 143.072 37.912C143.344 37.4 143.724 37.008 144.212 36.736C144.708 36.456 145.276 36.316 145.916 36.316C146.54 36.316 147.092 36.452 147.572 36.724C148.052 36.996 148.42 37.372 148.676 37.852C148.94 38.324 149.072 38.86 149.072 39.46ZM147.944 39.232C147.944 38.816 147.852 38.46 147.668 38.164C147.484 37.86 147.232 37.632 146.912 37.48C146.6 37.32 146.252 37.24 145.868 37.24C145.316 37.24 144.844 37.416 144.452 37.768C144.068 38.12 143.848 38.608 143.792 39.232H147.944ZM154.277 35.356C154.069 35.356 153.893 35.284 153.749 35.14C153.605 34.996 153.533 34.82 153.533 34.612C153.533 34.404 153.605 34.228 153.749 34.084C153.893 33.94 154.069 33.868 154.277 33.868C154.477 33.868 154.645 33.94 154.781 34.084C154.925 34.228 154.997 34.404 154.997 34.612C154.997 34.82 154.925 34.996 154.781 35.14C154.645 35.284 154.477 35.356 154.277 35.356ZM154.805 36.424V43H153.713V36.424H154.805ZM158.994 43.108C158.49 43.108 158.038 43.024 157.638 42.856C157.238 42.68 156.922 42.44 156.69 42.136C156.458 41.824 156.33 41.468 156.306 41.068H157.434C157.466 41.396 157.618 41.664 157.89 41.872C158.17 42.08 158.534 42.184 158.982 42.184C159.398 42.184 159.726 42.092 159.966 41.908C160.206 41.724 160.326 41.492 160.326 41.212C160.326 40.924 160.198 40.712 159.942 40.576C159.686 40.432 159.29 40.292 158.754 40.156C158.266 40.028 157.866 39.9 157.554 39.772C157.25 39.636 156.986 39.44 156.762 39.184C156.546 38.92 156.438 38.576 156.438 38.152C156.438 37.816 156.538 37.508 156.738 37.228C156.938 36.948 157.222 36.728 157.59 36.568C157.958 36.4 158.378 36.316 158.85 36.316C159.578 36.316 160.166 36.5 160.614 36.868C161.062 37.236 161.302 37.74 161.334 38.38H160.242C160.218 38.036 160.078 37.76 159.822 37.552C159.574 37.344 159.238 37.24 158.814 37.24C158.422 37.24 158.11 37.324 157.878 37.492C157.646 37.66 157.53 37.88 157.53 38.152C157.53 38.368 157.598 38.548 157.734 38.692C157.878 38.828 158.054 38.94 158.262 39.028C158.478 39.108 158.774 39.2 159.15 39.304C159.622 39.432 160.006 39.56 160.302 39.688C160.598 39.808 160.85 39.992 161.058 40.24C161.274 40.488 161.386 40.812 161.394 41.212C161.394 41.572 161.294 41.896 161.094 42.184C160.894 42.472 160.61 42.7 160.242 42.868C159.882 43.028 159.466 43.108 158.994 43.108ZM167.227 37.636C167.443 37.26 167.763 36.948 168.187 36.7C168.619 36.444 169.119 36.316 169.687 36.316C170.271 36.316 170.799 36.456 171.271 36.736C171.751 37.016 172.127 37.412 172.399 37.924C172.671 38.428 172.807 39.016 172.807 39.688C172.807 40.352 172.671 40.944 172.399 41.464C172.127 41.984 171.751 42.388 171.271 42.676C170.799 42.964 170.271 43.108 169.687 43.108C169.127 43.108 168.631 42.984 168.199 42.736C167.775 42.48 167.451 42.164 167.227 41.788V46.12H166.135V36.424H167.227V37.636ZM171.691 39.688C171.691 39.192 171.591 38.76 171.391 38.392C171.191 38.024 170.919 37.744 170.575 37.552C170.239 37.36 169.867 37.264 169.459 37.264C169.059 37.264 168.687 37.364 168.343 37.564C168.007 37.756 167.735 38.04 167.527 38.416C167.327 38.784 167.227 39.212 167.227 39.7C167.227 40.196 167.327 40.632 167.527 41.008C167.735 41.376 168.007 41.66 168.343 41.86C168.687 42.052 169.059 42.148 169.459 42.148C169.867 42.148 170.239 42.052 170.575 41.86C170.919 41.66 171.191 41.376 171.391 41.008C171.591 40.632 171.691 40.192 171.691 39.688ZM173.836 39.688C173.836 39.016 173.972 38.428 174.244 37.924C174.516 37.412 174.888 37.016 175.36 36.736C175.84 36.456 176.372 36.316 176.956 36.316C177.532 36.316 178.032 36.44 178.456 36.688C178.88 36.936 179.196 37.248 179.404 37.624V36.424H180.508V43H179.404V41.776C179.188 42.16 178.864 42.48 178.432 42.736C178.008 42.984 177.512 43.108 176.944 43.108C176.36 43.108 175.832 42.964 175.36 42.676C174.888 42.388 174.516 41.984 174.244 41.464C173.972 40.944 173.836 40.352 173.836 39.688ZM179.404 39.7C179.404 39.204 179.304 38.772 179.104 38.404C178.904 38.036 178.632 37.756 178.288 37.564C177.952 37.364 177.58 37.264 177.172 37.264C176.764 37.264 176.392 37.36 176.056 37.552C175.72 37.744 175.452 38.024 175.252 38.392C175.052 38.76 174.952 39.192 174.952 39.688C174.952 40.192 175.052 40.632 175.252 41.008C175.452 41.376 175.72 41.66 176.056 41.86C176.392 42.052 176.764 42.148 177.172 42.148C177.58 42.148 177.952 42.052 178.288 41.86C178.632 41.66 178.904 41.376 179.104 41.008C179.304 40.632 179.404 40.196 179.404 39.7ZM182.918 35.356C182.71 35.356 182.534 35.284 182.39 35.14C182.246 34.996 182.174 34.82 182.174 34.612C182.174 34.404 182.246 34.228 182.39 34.084C182.534 33.94 182.71 33.868 182.918 33.868C183.118 33.868 183.286 33.94 183.422 34.084C183.566 34.228 183.638 34.404 183.638 34.612C183.638 34.82 183.566 34.996 183.422 35.14C183.286 35.284 183.118 35.356 182.918 35.356ZM183.446 36.424V43H182.354V36.424H183.446ZM184.899 39.688C184.899 39.016 185.035 38.428 185.307 37.924C185.579 37.412 185.951 37.016 186.423 36.736C186.903 36.456 187.439 36.316 188.031 36.316C188.543 36.316 189.019 36.436 189.459 36.676C189.899 36.908 190.235 37.216 190.467 37.6V34.12H191.571V43H190.467V41.764C190.251 42.156 189.931 42.48 189.507 42.736C189.083 42.984 188.587 43.108 188.019 43.108C187.435 43.108 186.903 42.964 186.423 42.676C185.951 42.388 185.579 41.984 185.307 41.464C185.035 40.944 184.899 40.352 184.899 39.688ZM190.467 39.7C190.467 39.204 190.367 38.772 190.167 38.404C189.967 38.036 189.695 37.756 189.351 37.564C189.015 37.364 188.643 37.264 188.235 37.264C187.827 37.264 187.455 37.36 187.119 37.552C186.783 37.744 186.515 38.024 186.315 38.392C186.115 38.76 186.015 39.192 186.015 39.688C186.015 40.192 186.115 40.632 186.315 41.008C186.515 41.376 186.783 41.66 187.119 41.86C187.455 42.052 187.827 42.148 188.235 42.148C188.643 42.148 189.015 42.052 189.351 41.86C189.695 41.66 189.967 41.376 190.167 41.008C190.367 40.632 190.467 40.196 190.467 39.7Z" fill="#555555"/>
<rect x="15.5" y="0.5" width="250" height="59" rx="9.5" stroke="#555555"/>
<circle cx="15" cy="30" r="15" fill="#FF6903"/>
<path d="M8.34594 29.7409L10.3446 30.6157L16.1044 27.4737L12.6305 31.5263L17.6098 33.7935C17.695 33.8308 17.7879 33.847 17.8806 33.8408C17.9734 33.8346 18.0633 33.8062 18.1427 33.758C18.2222 33.7097 18.2888 33.643 18.3371 33.5635C18.3853 33.4841 18.4137 33.3941 18.4198 33.3014L18.9988 24.6172C19.0053 24.5167 18.9854 24.4163 18.9413 24.3257C18.8971 24.2352 18.8301 24.1578 18.7469 24.101C18.6637 24.0442 18.5672 24.01 18.4668 24.0019C18.3664 23.9938 18.2656 24.0119 18.1743 24.0545L8.33147 28.6861C8.23107 28.7337 8.14646 28.8091 8.0877 28.9035C8.02895 28.9978 7.99853 29.107 8.00005 29.2181C8.00158 29.3292 8.03499 29.4376 8.09631 29.5302C8.15762 29.6229 8.24427 29.696 8.34594 29.7409V29.7409ZM11.4725 35L14.2378 33.6592L11.4725 32.3693V35Z" fill="white"/>
</svg>
