<svg width="266" height="60" viewBox="0 0 266 60" fill="none" xmlns="http://www.w3.org/2000/svg">
<rect x="15.5" y="0.5" width="250" height="59" rx="9.5" stroke="#555555"/>
<circle cx="15" cy="30" r="15" fill="#FF6903"/>
<path d="M8.34594 29.7409L10.3446 30.6157L16.1044 27.4737L12.6305 31.5263L17.6098 33.7935C17.695 33.8308 17.7879 33.847 17.8806 33.8408C17.9734 33.8346 18.0633 33.8062 18.1427 33.758C18.2222 33.7097 18.2888 33.643 18.3371 33.5635C18.3853 33.4841 18.4137 33.3941 18.4198 33.3014L18.9988 24.6172C19.0053 24.5167 18.9854 24.4163 18.9413 24.3257C18.8971 24.2352 18.8301 24.1578 18.7469 24.101C18.6637 24.0442 18.5672 24.01 18.4668 24.0019C18.3664 23.9938 18.2656 24.0119 18.1743 24.0545L8.33147 28.6861C8.23107 28.7337 8.14646 28.8091 8.0877 28.9035C8.02895 28.9978 7.99853 29.107 8.00005 29.2181C8.00158 29.3292 8.03499 29.4376 8.09631 29.5302C8.15762 29.6229 8.24427 29.696 8.34594 29.7409V29.7409ZM11.4725 35L14.2378 33.6592L11.4725 32.3693V35Z" fill="white"/>
</svg>
